solid myGun_XIIII
facet normal 1.0 -0.0 -0.0
  outer loop
    vertex 68.00000000000003 12.0 0.0
    vertex 68.00000000000003 9.700000000000003 0.9242240000000008
    vertex 68.00000000000003 9.700000000000001 8.308829814650057e-16
  endloop
endfacet
facet normal 1.0 -0.0 -0.0
  outer loop
    vertex 68.00000000000003 7.700000000000003 8.308829814650057e-16
    vertex 68.00000000000003 0.9999999999999998 10.0
    vertex 68.00000000000003 0.9999999999999998 0.0
  endloop
endfacet
facet normal 1.0 -0.0 -0.0
  outer loop
    vertex 68.00000000000003 0.9999999999999998 10.0
    vertex 68.00000000000003 7.700000000000003 8.308829814650057e-16
    vertex 68.00000000000003 7.700000000000001 9.0
  endloop
endfacet
facet normal 1.0 -0.0 -0.0
  outer loop
    vertex 68.00000000000003 7.700000000000001 9.0
    vertex 68.00000000000003 7.700000000000003 8.308829814650057e-16
    vertex 68.00000000000003 7.700000000000005 0.9242240000000008
  endloop
endfacet
facet normal 1.0 -0.0 -0.0
  outer loop
    vertex 68.00000000000003 7.700000000000001 9.0
    vertex 68.00000000000003 7.700000000000005 0.9242240000000008
    vertex 68.00000000000003 9.700000000000001 9.0
  endloop
endfacet
facet normal 1.0 -0.0 -0.0
  outer loop
    vertex 68.00000000000003 9.700000000000001 9.0
    vertex 68.00000000000003 7.700000000000005 0.9242240000000008
    vertex 68.00000000000003 9.700000000000003 0.9242240000000008
  endloop
endfacet
facet normal 1.0 -0.0 -0.0
  outer loop
    vertex 68.00000000000003 9.700000000000001 9.0
    vertex 68.00000000000003 9.700000000000003 0.9242240000000008
    vertex 68.00000000000003 9.700000000000001 10.0
  endloop
endfacet
facet normal 1.0 -0.0 -0.0
  outer loop
    vertex 68.00000000000003 9.700000000000001 10.0
    vertex 68.00000000000003 9.700000000000003 0.9242240000000008
    vertex 68.00000000000003 12.0 10.0
  endloop
endfacet
facet normal 1.0 -0.0 -0.0
  outer loop
    vertex 68.00000000000003 12.0 10.0
    vertex 68.00000000000003 9.700000000000003 0.9242240000000008
    vertex 68.00000000000003 12.0 0.0
  endloop
endfacet
facet normal 1.0 -0.0 -0.0
  outer loop
    vertex 68.00000000000003 7.700000000000001 10.0
    vertex 68.00000000000003 0.9999999999999998 10.0
    vertex 68.00000000000003 7.700000000000001 9.0
  endloop
endfacet
facet normal -1.0 0.0 0.0
  outer loop
    vertex 43.000000000000014 7.700000000000001 10.0
    vertex 43.000000000000014 3.0 0.0
    vertex 43.000000000000014 3.0 10.0
  endloop
endfacet
facet normal -1.0 0.0 0.0
  outer loop
    vertex 43.000000000000014 3.0 0.0
    vertex 43.000000000000014 7.700000000000001 10.0
    vertex 43.000000000000014 6.699999999999999 7.000000000000001
  endloop
endfacet
facet normal -1.0 0.0 0.0
  outer loop
    vertex 43.000000000000014 6.699999999999999 7.000000000000001
    vertex 43.000000000000014 7.700000000000001 10.0
    vertex 43.000000000000014 7.700000000000001 7.000000000000001
  endloop
endfacet
facet normal -1.0 0.0 0.0
  outer loop
    vertex 43.000000000000014 3.0 0.0
    vertex 43.000000000000014 6.699999999999999 3.000000000000002
    vertex 43.000000000000014 7.700000000000001 4.229949723821846e-15
  endloop
endfacet
facet normal -1.0 0.0 0.0
  outer loop
    vertex 43.000000000000014 6.699999999999999 3.000000000000002
    vertex 43.000000000000014 3.0 0.0
    vertex 43.000000000000014 6.699999999999999 7.000000000000001
  endloop
endfacet
facet normal -1.0 0.0 0.0
  outer loop
    vertex 43.000000000000014 7.700000000000001 4.229949723821846e-15
    vertex 43.000000000000014 6.699999999999999 3.000000000000002
    vertex 43.000000000000014 7.700000000000001 3.000000000000002
  endloop
endfacet
facet normal -0.0 1.0 -0.0
  outer loop
    vertex 57.99999999999999 12.0 10.0
    vertex 65.0 11.999999999999988 7.650000000000003
    vertex 57.99999999999999 12.0 7.650000000000003
  endloop
endfacet
facet normal -0.0 1.0 -0.0
  outer loop
    vertex 68.00000000000003 12.0 0.0
    vertex 65.0 11.999999999999988 2.3499999999999983
    vertex 68.00000000000003 12.0 10.0
  endloop
endfacet
facet normal -0.0 1.0 -0.0
  outer loop
    vertex 65.0 11.999999999999988 2.3499999999999983
    vertex 68.00000000000003 12.0 0.0
    vertex 57.99999999999999 12.0 7.049916206369744e-16
  endloop
endfacet
facet normal -0.0 1.0 -0.0
  outer loop
    vertex 65.0 11.999999999999988 2.3499999999999983
    vertex 57.99999999999999 12.0 7.049916206369744e-16
    vertex 57.99999999999999 12.0 2.3499999999999983
  endloop
endfacet
facet normal -0.0 1.0 -0.0
  outer loop
    vertex 68.00000000000003 12.0 10.0
    vertex 65.0 11.999999999999988 2.3499999999999983
    vertex 65.0 11.999999999999988 7.650000000000003
  endloop
endfacet
facet normal -0.0 1.0 -0.0
  outer loop
    vertex 68.00000000000003 12.0 10.0
    vertex 65.0 11.999999999999988 7.650000000000003
    vertex 57.99999999999999 12.0 10.0
  endloop
endfacet
facet normal -3.61937662380588e-17 -1.8062673510108817e-16 -1.0
  outer loop
    vertex 68.00000000000003 12.0 0.0
    vertex 57.99999999999999 9.700000000000001 7.049916206369744e-16
    vertex 57.99999999999999 12.0 7.049916206369744e-16
  endloop
endfacet
facet normal -3.61937662380588e-17 -1.8062673510108817e-16 -1.0
  outer loop
    vertex 57.99999999999999 9.700000000000001 7.049916206369744e-16
    vertex 68.00000000000003 12.0 0.0
    vertex 68.00000000000003 9.700000000000001 8.308829814650057e-16
  endloop
endfacet
facet normal -0.0 1.0 -0.0
  outer loop
    vertex 43.000000000000014 7.700000000000001 7.000000000000001
    vertex 57.99999999999999 7.700000000000001 7.650000000000003
    vertex 64.99999999999999 7.699999999999989 7.000000000000001
  endloop
endfacet
facet normal -0.0 1.0 -0.0
  outer loop
    vertex 57.99999999999999 7.700000000000001 7.650000000000003
    vertex 43.000000000000014 7.700000000000001 7.000000000000001
    vertex 43.000000000000014 7.700000000000001 10.0
  endloop
endfacet
facet normal -0.0 1.0 -0.0
  outer loop
    vertex 57.99999999999999 7.700000000000001 7.650000000000003
    vertex 43.000000000000014 7.700000000000001 10.0
    vertex 57.99999999999999 7.700000000000001 9.0
  endloop
endfacet
facet normal -0.0 1.0 -0.0
  outer loop
    vertex 57.99999999999999 7.700000000000001 9.0
    vertex 43.000000000000014 7.700000000000001 10.0
    vertex 68.00000000000003 7.700000000000001 9.0
  endloop
endfacet
facet normal -0.0 1.0 -0.0
  outer loop
    vertex 68.00000000000003 7.700000000000001 9.0
    vertex 43.000000000000014 7.700000000000001 10.0
    vertex 68.00000000000003 7.700000000000001 10.0
  endloop
endfacet
facet normal -0.0 1.0 -0.0
  outer loop
    vertex 65.0 7.699999999999989 7.650000000000003
    vertex 64.99999999999999 7.699999999999989 7.000000000000001
    vertex 57.99999999999999 7.700000000000001 7.650000000000003
  endloop
endfacet
facet normal 0.0 -1.0 0.0
  outer loop
    vertex 68.00000000000003 9.700000000000001 10.0
    vertex 57.99999999999999 9.700000000000001 9.0
    vertex 68.00000000000003 9.700000000000001 9.0
  endloop
endfacet
facet normal 0.0 -1.0 0.0
  outer loop
    vertex 57.99999999999999 9.700000000000001 9.0
    vertex 68.00000000000003 9.700000000000001 10.0
    vertex 57.99999999999999 9.700000000000001 10.0
  endloop
endfacet
facet normal -3.334758873790445e-32 -1.0 1.5255860497822485e-15
  outer loop
    vertex 68.00000000000003 9.700000000000001 8.308829814650057e-16
    vertex 57.99999999999999 9.700000000000003 0.9242240000000007
    vertex 57.99999999999999 9.700000000000001 7.049916206369744e-16
  endloop
endfacet
facet normal -3.334758873790445e-32 -1.0 1.5255860497822485e-15
  outer loop
    vertex 57.99999999999999 9.700000000000003 0.9242240000000007
    vertex 68.00000000000003 9.700000000000001 8.308829814650057e-16
    vertex 68.00000000000003 9.700000000000003 0.9242240000000008
  endloop
endfacet
facet normal -0.0 -0.0 1.0
  outer loop
    vertex 68.00000000000003 9.700000000000001 10.0
    vertex 57.99999999999999 12.0 10.0
    vertex 57.99999999999999 9.700000000000001 10.0
  endloop
endfacet
facet normal -0.0 -0.0 1.0
  outer loop
    vertex 57.99999999999999 12.0 10.0
    vertex 68.00000000000003 9.700000000000001 10.0
    vertex 68.00000000000003 12.0 10.0
  endloop
endfacet
facet normal 0.9999996886030221 0.0007600949990187282 0.00021224856054231727
  outer loop
    vertex 25.405631299530544 5.3988036610141235 -0.0003554320600421899
    vertex 25.40000029953056 8.648803661014126 3.374644567939939
    vertex 25.405631299530544 5.3988036610141155 3.3746445679399377
  endloop
endfacet
facet normal 0.9999996886030221 0.0007600949990187282 0.00021224856054231727
  outer loop
    vertex 25.40000029953056 8.648803661014126 3.374644567939939
    vertex 25.405631299530544 5.3988036610141235 -0.0003554320600421899
    vertex 25.40000029953056 7.698803661014126 0.9238685679399583
  endloop
endfacet
facet normal 0.9999996886030221 0.0007600949990187282 0.00021224856054231727
  outer loop
    vertex 25.40000029953056 7.698803661014126 0.9238685679399583
    vertex 25.405631299530544 5.3988036610141235 -0.0003554320600421899
    vertex 25.40000029953056 7.698803661014126 -0.00035543206004160356
  endloop
endfacet
facet normal 0.9999996886030221 0.0007600949990187282 0.00021224856054231727
  outer loop
    vertex 25.40000029953056 8.648803661014126 3.374644567939939
    vertex 25.40000029953056 7.698803661014126 0.9238685679399583
    vertex 25.40000029953056 9.698803661014123 0.9238685679399585
  endloop
endfacet
facet normal 0.9999996886030221 0.0007600949990187282 0.00021224856054231727
  outer loop
    vertex 25.40000029953056 8.648803661014126 3.374644567939939
    vertex 25.40000029953056 9.698803661014123 0.9238685679399585
    vertex 25.40000029953056 8.648803661014126 6.62464456793994
  endloop
endfacet
facet normal 0.9999996886030221 0.0007600949990187282 0.00021224856054231727
  outer loop
    vertex 25.40000029953056 8.648803661014126 6.62464456793994
    vertex 25.40000029953056 5.3988036610141235 9.999644567939958
    vertex 25.40000029953056 5.3988036610141235 6.62464456793994
  endloop
endfacet
facet normal 0.9999996886030221 0.0007600949990187282 0.00021224856054231727
  outer loop
    vertex 25.40000029953056 5.3988036610141235 9.999644567939958
    vertex 25.40000029953056 8.648803661014126 6.62464456793994
    vertex 25.40000029953056 7.698803661014124 8.999644567939958
  endloop
endfacet
facet normal 0.9999996886030221 0.0007600949990187282 0.00021224856054231727
  outer loop
    vertex 25.40000029953056 7.698803661014124 8.999644567939958
    vertex 25.40000029953056 8.648803661014126 6.62464456793994
    vertex 25.40000029953056 9.698803661014123 8.999644567939958
  endloop
endfacet
facet normal 0.9999996886030221 0.0007600949990187282 0.00021224856054231727
  outer loop
    vertex 25.40000029953056 9.698803661014123 8.999644567939958
    vertex 25.40000029953056 8.648803661014126 6.62464456793994
    vertex 25.40000029953056 9.698803661014123 0.9238685679399585
  endloop
endfacet
facet normal 0.9999996886030221 0.0007600949990187282 0.00021224856054231727
  outer loop
    vertex 25.40000029953056 7.698803661014124 9.999644567939958
    vertex 25.40000029953056 5.3988036610141235 9.999644567939958
    vertex 25.40000029953056 7.698803661014124 8.999644567939958
  endloop
endfacet
facet normal -0.0 -0.0 1.0
  outer loop
    vertex 68.00000000000003 7.700000000000001 9.0
    vertex 57.99999999999999 9.700000000000001 9.0
    vertex 57.99999999999999 7.700000000000001 9.0
  endloop
endfacet
facet normal -0.0 -0.0 1.0
  outer loop
    vertex 57.99999999999999 9.700000000000001 9.0
    vertex 68.00000000000003 7.700000000000001 9.0
    vertex 68.00000000000003 9.700000000000001 9.0
  endloop
endfacet
facet normal -1.9827889330414823e-16 -8.812395257962189e-16 -1.0
  outer loop
    vertex 68.00000000000003 9.700000000000003 0.9242240000000008
    vertex 57.99999999999999 7.700000000000003 0.9242240000000042
    vertex 57.99999999999999 9.700000000000003 0.9242240000000007
  endloop
endfacet
facet normal -1.9827889330414823e-16 -8.812395257962189e-16 -1.0
  outer loop
    vertex 57.99999999999999 7.700000000000003 0.9242240000000042
    vertex 68.00000000000003 9.700000000000003 0.9242240000000008
    vertex 68.00000000000003 7.700000000000005 0.9242240000000008
  endloop
endfacet
facet normal -2.985814424463947e-17 -1.0 6.83649155805536e-18
  outer loop
    vertex 67.00000000000003 3.1094062946764094e-17 0.0
    vertex 63.00000000000003 0.0 0.9999999999999998
    vertex 62.189929556340275 1.762479051592436e-16 1.4027625910663842e-15
  endloop
endfacet
facet normal -2.985814424463947e-17 -1.0 6.83649155805536e-18
  outer loop
    vertex 63.00000000000003 0.0 0.9999999999999998
    vertex 67.00000000000003 3.1094062946764094e-17 0.0
    vertex 67.00000000000003 3.1094062946764094e-17 10.0
  endloop
endfacet
facet normal -2.985814424463947e-17 -1.0 6.83649155805536e-18
  outer loop
    vertex 63.00000000000003 0.0 0.9999999999999998
    vertex 67.00000000000003 3.1094062946764094e-17 10.0
    vertex 63.00000000000003 0.0 8.999999999999998
  endloop
endfacet
facet normal -2.985814424463947e-17 -1.0 6.83649155805536e-18
  outer loop
    vertex 63.00000000000003 0.0 8.999999999999998
    vertex 67.00000000000003 3.1094062946764094e-17 10.0
    vertex 62.33178271167086 3.524958103184872e-16 9.999999999999998
  endloop
endfacet
facet normal 1.384804969108343e-16 -1.0 -2.584969275668907e-16
  outer loop
    vertex 25.999999999999986 3.9999999999999996 0.0
    vertex 22.999999999999986 3.9999999999999996 10.0
    vertex 22.999999999999986 4.000000000000007 -4.93494134445882e-15
  endloop
endfacet
facet normal 1.384804969108343e-16 -1.0 -2.584969275668907e-16
  outer loop
    vertex 22.999999999999986 3.9999999999999996 10.0
    vertex 25.999999999999986 3.9999999999999996 0.0
    vertex 25.999999999999986 3.9999999999999996 10.0
  endloop
endfacet
facet normal 3.754393245995668e-17 1.0 2.1149748619109242e-16
  outer loop
    vertex 22.999999999999986 1.9999999999999998 10.0
    vertex 25.999999999999986 1.9999999999999998 0.0
    vertex 22.999999999999986 2.000000000000006 -4.93494134445882e-15
  endloop
endfacet
facet normal 3.754393245995668e-17 1.0 2.1149748619109242e-16
  outer loop
    vertex 25.999999999999986 1.9999999999999998 0.0
    vertex 22.999999999999986 1.9999999999999998 10.0
    vertex 25.999999999999986 1.9999999999999998 10.0
  endloop
endfacet
facet normal -0.0 1.0 -0.0
  outer loop
    vertex 39.999999999999986 3.0 10.0
    vertex 43.000000000000014 3.0 0.0
    vertex 39.999999999999986 3.0 0.0
  endloop
endfacet
facet normal -0.0 1.0 -0.0
  outer loop
    vertex 43.000000000000014 3.0 0.0
    vertex 39.999999999999986 3.0 10.0
    vertex 43.000000000000014 3.0 10.0
  endloop
endfacet
facet normal -1.0 0.0 0.0
  outer loop
    vertex 25.999999999999986 3.9999999999999996 10.0
    vertex 25.999999999999986 1.9999999999999998 0.0
    vertex 25.999999999999986 1.9999999999999998 10.0
  endloop
endfacet
facet normal -1.0 0.0 0.0
  outer loop
    vertex 25.999999999999986 1.9999999999999998 0.0
    vertex 25.999999999999986 3.9999999999999996 10.0
    vertex 25.999999999999986 3.9999999999999996 0.0
  endloop
endfacet
facet normal 1.0 -0.0 -0.0
  outer loop
    vertex 39.999999999999986 5.4 0.0
    vertex 39.999999999999986 3.0 10.0
    vertex 39.999999999999986 3.0 0.0
  endloop
endfacet
facet normal 1.0 -0.0 -0.0
  outer loop
    vertex 39.999999999999986 3.0 10.0
    vertex 39.999999999999986 5.4 0.0
    vertex 39.999999999999986 5.4 10.0
  endloop
endfacet
facet normal 9.44185206210234e-18 2.2030988144905472e-16 -1.0
  outer loop
    vertex 15.400000299530562 9.698803661014123 0.9238685679399585
    vertex 0.0 7.700000000000003 0.9242239999999999
    vertex 0.0 9.700000000000001 0.9242240000000007
  endloop
endfacet
facet normal 9.44185206210234e-18 2.2030988144905472e-16 -1.0
  outer loop
    vertex 0.0 7.700000000000003 0.9242239999999999
    vertex 15.400000299530562 9.698803661014123 0.9238685679399585
    vertex 25.40000029953056 7.698803661014126 0.9238685679399583
  endloop
endfacet
facet normal 9.44185206210234e-18 2.2030988144905472e-16 -1.0
  outer loop
    vertex 25.40000029953056 7.698803661014126 0.9238685679399583
    vertex 15.400000299530562 9.698803661014123 0.9238685679399585
    vertex 25.40000029953056 9.698803661014123 0.9238685679399585
  endloop
endfacet
facet normal -0.0 1.0 -0.0
  outer loop
    vertex 0.0 7.700000000000001 9.0
    vertex 25.40000029953056 7.698803661014124 9.999644567939958
    vertex 25.40000029953056 7.698803661014124 8.999644567939958
  endloop
endfacet
facet normal -0.0 1.0 -0.0
  outer loop
    vertex 25.40000029953056 7.698803661014124 9.999644567939958
    vertex 0.0 7.700000000000001 9.0
    vertex 0.0 7.700000000000001 10.0
  endloop
endfacet
facet normal 0.0 -1.0 0.0
  outer loop
    vertex 15.400000299530562 9.698803661014123 0.9238685679399585
    vertex 0.0 9.700000000000001 7.049916206369744e-16
    vertex 15.400000299530562 9.698803661014123 -0.0003554320600414849
  endloop
endfacet
facet normal 0.0 -1.0 0.0
  outer loop
    vertex 0.0 9.700000000000001 7.049916206369744e-16
    vertex 15.400000299530562 9.698803661014123 0.9238685679399585
    vertex 0.0 9.700000000000001 0.9242240000000007
  endloop
endfacet
facet normal -0.0 1.0 -0.0
  outer loop
    vertex 0.0 7.700000000000003 0.0
    vertex 25.40000029953056 7.698803661014126 0.9238685679399583
    vertex 25.40000029953056 7.698803661014126 -0.00035543206004160356
  endloop
endfacet
facet normal -0.0 1.0 -0.0
  outer loop
    vertex 25.40000029953056 7.698803661014126 0.9238685679399583
    vertex 0.0 7.700000000000003 0.0
    vertex 0.0 7.700000000000003 0.9242239999999999
  endloop
endfacet
facet normal -0.0 -0.0 1.0
  outer loop
    vertex 25.40000029953056 7.698803661014124 8.999644567939958
    vertex 0.0 9.700000000000001 9.0
    vertex 0.0 7.700000000000001 9.0
  endloop
endfacet
facet normal -0.0 -0.0 1.0
  outer loop
    vertex 0.0 9.700000000000001 9.0
    vertex 25.40000029953056 7.698803661014124 8.999644567939958
    vertex 15.400000299530562 9.698803661014123 8.999644567939958
  endloop
endfacet
facet normal -0.0 -0.0 1.0
  outer loop
    vertex 15.400000299530562 9.698803661014123 8.999644567939958
    vertex 25.40000029953056 7.698803661014124 8.999644567939958
    vertex 25.40000029953056 9.698803661014123 8.999644567939958
  endloop
endfacet
facet normal 0.0 -1.0 0.0
  outer loop
    vertex 15.400000299530562 9.698803661014123 9.999644567939958
    vertex 0.0 9.700000000000001 9.0
    vertex 15.400000299530562 9.698803661014123 8.999644567939958
  endloop
endfacet
facet normal 0.0 -1.0 0.0
  outer loop
    vertex 0.0 9.700000000000001 9.0
    vertex 15.400000299530562 9.698803661014123 9.999644567939958
    vertex 0.0 9.700000000000001 10.0
  endloop
endfacet
facet normal -0.0 -0.0 -1.0
  outer loop
    vertex 46.40946050676257 -1.9999999999999996 8.999999999999998
    vertex 53.89449717598404 -28.629653828727026 8.999999999999998
    vertex 45.45717821872049 -2.3052186820647664 8.999999999999998
  endloop
endfacet
facet normal -0.0 -0.0 -1.0
  outer loop
    vertex 53.89449717598404 -28.629653828727026 8.999999999999998
    vertex 46.40946050676257 -1.9999999999999996 8.999999999999998
    vertex 54.84677946402611 -28.32443514666226 8.999999999999998
  endloop
endfacet
facet normal 0.0 -1.0 0.0
  outer loop
    vertex 60.87259077528878 -1.9999999999999996 9.999999999999998
    vertex 46.40946050676257 -1.9999999999999996 8.999999999999998
    vertex 60.87259077528878 -1.9999999999999996 8.999999999999998
  endloop
endfacet
facet normal 0.0 -1.0 0.0
  outer loop
    vertex 46.40946050676257 -1.9999999999999996 8.999999999999998
    vertex 60.87259077528878 -1.9999999999999996 9.999999999999998
    vertex 46.40946050676257 -1.9999999999999996 9.999999999999998
  endloop
endfacet
facet normal 2.7044090864179318e-30 1.2296365476226302e-15 1.0
  outer loop
    vertex 65.0 7.69999999999999 2.3500000000000036
    vertex 57.99999999999999 12.0 2.3499999999999983
    vertex 57.99999999999999 7.700000000000003 2.3500000000000036
  endloop
endfacet
facet normal 2.7044090864179318e-30 1.2296365476226302e-15 1.0
  outer loop
    vertex 57.99999999999999 12.0 2.3499999999999983
    vertex 65.0 7.69999999999999 2.3500000000000036
    vertex 65.0 11.999999999999988 2.3499999999999983
  endloop
endfacet
facet normal 0.3052186820647678 -0.9522822880420733 -0.0
  outer loop
    vertex 61.82487306333085 -1.6947813179352316 8.999999999999998
    vertex 60.87259077528878 -1.9999999999999996 0.9999999999999887
    vertex 61.82487306333085 -1.6947813179352316 0.9999999999999887
  endloop
endfacet
facet normal 0.3052186820647678 -0.9522822880420733 -0.0
  outer loop
    vertex 60.87259077528878 -1.9999999999999996 0.9999999999999887
    vertex 61.82487306333085 -1.6947813179352316 8.999999999999998
    vertex 60.87259077528878 -1.9999999999999996 8.999999999999998
  endloop
endfacet
facet normal -1.0 0.0 0.0
  outer loop
    vertex 57.99999999999999 12.0 10.0
    vertex 57.99999999999999 9.700000000000001 9.0
    vertex 57.99999999999999 9.700000000000001 10.0
  endloop
endfacet
facet normal -1.0 0.0 0.0
  outer loop
    vertex 57.99999999999999 9.700000000000001 9.0
    vertex 57.99999999999999 7.700000000000001 7.650000000000003
    vertex 57.99999999999999 7.700000000000001 9.0
  endloop
endfacet
facet normal -1.0 0.0 0.0
  outer loop
    vertex 57.99999999999999 7.700000000000001 7.650000000000003
    vertex 57.99999999999999 9.700000000000001 9.0
    vertex 57.99999999999999 12.0 7.650000000000003
  endloop
endfacet
facet normal -1.0 0.0 0.0
  outer loop
    vertex 57.99999999999999 12.0 7.650000000000003
    vertex 57.99999999999999 9.700000000000001 9.0
    vertex 57.99999999999999 12.0 10.0
  endloop
endfacet
facet normal -1.0 1.7806489387222552e-15 5.148580728795975e-31
  outer loop
    vertex 65.0 11.999999999999988 7.650000000000003
    vertex 64.99999999999999 7.699999999999989 7.000000000000001
    vertex 65.0 7.699999999999989 7.650000000000003
  endloop
endfacet
facet normal -1.0 1.7806489387222552e-15 5.148580728795975e-31
  outer loop
    vertex 64.99999999999999 7.699999999999989 7.000000000000001
    vertex 65.0 11.999999999999988 7.650000000000003
    vertex 64.99999999999999 7.699999999999989 3.000000000000002
  endloop
endfacet
facet normal -1.0 1.7806489387222552e-15 5.148580728795975e-31
  outer loop
    vertex 64.99999999999999 7.699999999999989 3.000000000000002
    vertex 65.0 11.999999999999988 7.650000000000003
    vertex 65.0 7.69999999999999 2.3500000000000036
  endloop
endfacet
facet normal -1.0 1.7806489387222552e-15 5.148580728795975e-31
  outer loop
    vertex 65.0 7.69999999999999 2.3500000000000036
    vertex 65.0 11.999999999999988 7.650000000000003
    vertex 65.0 11.999999999999988 2.3499999999999983
  endloop
endfacet
facet normal -1.0 1.7806489387222552e-15 5.148580728795975e-31
  outer loop
    vertex 64.99999999999999 7.699999999999989 7.000000000000001
    vertex 64.99999999999999 6.699999999999986 3.000000000000002
    vertex 64.99999999999999 6.699999999999986 7.000000000000001
  endloop
endfacet
facet normal -1.0 1.7806489387222552e-15 5.148580728795975e-31
  outer loop
    vertex 64.99999999999999 6.699999999999986 3.000000000000002
    vertex 64.99999999999999 7.699999999999989 7.000000000000001
    vertex 64.99999999999999 7.699999999999989 3.000000000000002
  endloop
endfacet
facet normal -5.148580728795975e-31 0.0 -1.0
  outer loop
    vertex 65.0 11.999999999999988 7.650000000000003
    vertex 57.99999999999999 7.700000000000001 7.650000000000003
    vertex 57.99999999999999 12.0 7.650000000000003
  endloop
endfacet
facet normal -5.148580728795975e-31 0.0 -1.0
  outer loop
    vertex 57.99999999999999 7.700000000000001 7.650000000000003
    vertex 65.0 11.999999999999988 7.650000000000003
    vertex 65.0 7.699999999999989 7.650000000000003
  endloop
endfacet
facet normal -0.0 -0.0 1.0
  outer loop
    vertex 60.87259077528878 -1.9999999999999996 0.9999999999999887
    vertex 46.40946050676257 -0.9999999999999996 0.9999999999999887
    vertex 46.40946050676257 -1.9999999999999996 0.9999999999999887
  endloop
endfacet
facet normal -0.0 -0.0 1.0
  outer loop
    vertex 46.40946050676257 -0.9999999999999996 0.9999999999999887
    vertex 60.87259077528878 -1.9999999999999996 0.9999999999999887
    vertex 60.87259077528878 -0.9999999999999996 0.9999999999999887
  endloop
endfacet
facet normal 0.30521868206476693 -0.9522822880420736 -0.0
  outer loop
    vertex 46.40946050676257 -1.9999999999999996 8.999999999999998
    vertex 45.45717821872049 -2.3052186820647664 0.9999999999999887
    vertex 46.40946050676257 -1.9999999999999996 0.9999999999999887
  endloop
endfacet
facet normal 0.30521868206476693 -0.9522822880420736 -0.0
  outer loop
    vertex 45.45717821872049 -2.3052186820647664 0.9999999999999887
    vertex 46.40946050676257 -1.9999999999999996 8.999999999999998
    vertex 45.45717821872049 -2.3052186820647664 8.999999999999998
  endloop
endfacet
facet normal -0.9522822880420733 -0.3052186820647679 0.0
  outer loop
    vertex 61.82487306333085 -1.6947813179352316 8.999999999999998
    vertex 69.7290958728763 -26.355956483716966 0.9999999999999887
    vertex 69.7290958728763 -26.355956483716966 8.999999999999998
  endloop
endfacet
facet normal -0.9522822880420733 -0.3052186820647679 0.0
  outer loop
    vertex 69.7290958728763 -26.355956483716966 0.9999999999999887
    vertex 61.82487306333085 -1.6947813179352316 8.999999999999998
    vertex 61.82487306333085 -1.6947813179352316 0.9999999999999887
  endloop
endfacet
facet normal -0.3052186820647678 0.9522822880420733 -0.0
  outer loop
    vertex 68.77681358483423 -26.66117516578173 8.999999999999998
    vertex 69.7290958728763 -26.355956483716966 0.9999999999999887
    vertex 68.77681358483423 -26.66117516578173 0.9999999999999887
  endloop
endfacet
facet normal -0.3052186820647678 0.9522822880420733 -0.0
  outer loop
    vertex 69.7290958728763 -26.355956483716966 0.9999999999999887
    vertex 68.77681358483423 -26.66117516578173 8.999999999999998
    vertex 69.7290958728763 -26.355956483716966 8.999999999999998
  endloop
endfacet
facet normal -1.0 0.0 0.0
  outer loop
    vertex 57.99999999999999 12.0 2.3499999999999983
    vertex 57.99999999999999 7.700000000000003 0.9242240000000042
    vertex 57.99999999999999 7.700000000000003 2.3500000000000036
  endloop
endfacet
facet normal -1.0 0.0 0.0
  outer loop
    vertex 57.99999999999999 7.700000000000003 0.9242240000000042
    vertex 57.99999999999999 12.0 2.3499999999999983
    vertex 57.99999999999999 9.700000000000003 0.9242240000000007
  endloop
endfacet
facet normal -1.0 0.0 0.0
  outer loop
    vertex 57.99999999999999 9.700000000000003 0.9242240000000007
    vertex 57.99999999999999 12.0 7.049916206369744e-16
    vertex 57.99999999999999 9.700000000000001 7.049916206369744e-16
  endloop
endfacet
facet normal -1.0 0.0 0.0
  outer loop
    vertex 57.99999999999999 12.0 7.049916206369744e-16
    vertex 57.99999999999999 9.700000000000003 0.9242240000000007
    vertex 57.99999999999999 12.0 2.3499999999999983
  endloop
endfacet
facet normal -0.0 -0.0 -1.0
  outer loop
    vertex 60.87259077528878 -0.9999999999999996 8.999999999999998
    vertex 46.40946050676257 -1.9999999999999996 8.999999999999998
    vertex 46.40946050676257 -0.9999999999999996 8.999999999999998
  endloop
endfacet
facet normal -0.0 -0.0 -1.0
  outer loop
    vertex 46.40946050676257 -1.9999999999999996 8.999999999999998
    vertex 60.87259077528878 -0.9999999999999996 8.999999999999998
    vertex 60.87259077528878 -1.9999999999999996 8.999999999999998
  endloop
endfacet
facet normal 0.0 -1.0 0.0
  outer loop
    vertex 60.87259077528878 -0.9999999999999996 8.999999999999998
    vertex 46.40946050676257 -0.9999999999999996 0.9999999999999887
    vertex 60.87259077528878 -0.9999999999999996 0.9999999999999887
  endloop
endfacet
facet normal 0.0 -1.0 0.0
  outer loop
    vertex 46.40946050676257 -0.9999999999999996 0.9999999999999887
    vertex 60.87259077528878 -0.9999999999999996 8.999999999999998
    vertex 46.40946050676257 -0.9999999999999996 8.999999999999998
  endloop
endfacet
facet normal -1.0 -0.0 0.0
  outer loop
    vertex 60.87259077528878 -0.9999999999999996 8.999999999999998
    vertex 60.87259077528878 -1.9999999999999996 0.9999999999999887
    vertex 60.87259077528878 -1.9999999999999996 8.999999999999998
  endloop
endfacet
facet normal -1.0 -0.0 0.0
  outer loop
    vertex 60.87259077528878 -1.9999999999999996 0.9999999999999887
    vertex 60.87259077528878 -0.9999999999999996 8.999999999999998
    vertex 60.87259077528878 -0.9999999999999996 0.9999999999999887
  endloop
endfacet
facet normal 1.0 0.0 0.0
  outer loop
    vertex 46.40946050676257 -0.9999999999999996 0.9999999999999887
    vertex 46.40946050676257 -1.9999999999999996 8.999999999999998
    vertex 46.40946050676257 -1.9999999999999996 0.9999999999999887
  endloop
endfacet
facet normal 1.0 0.0 0.0
  outer loop
    vertex 46.40946050676257 -1.9999999999999996 8.999999999999998
    vertex 46.40946050676257 -0.9999999999999996 0.9999999999999887
    vertex 46.40946050676257 -0.9999999999999996 8.999999999999998
  endloop
endfacet
facet normal -0.0 0.0 1.0
  outer loop
    vertex 68.77681358483423 -26.66117516578173 0.9999999999999887
    vertex 61.82487306333085 -1.6947813179352316 0.9999999999999887
    vertex 60.87259077528878 -1.9999999999999996 0.9999999999999887
  endloop
endfacet
facet normal -0.0 0.0 1.0
  outer loop
    vertex 61.82487306333085 -1.6947813179352316 0.9999999999999887
    vertex 68.77681358483423 -26.66117516578173 0.9999999999999887
    vertex 69.7290958728763 -26.355956483716966 0.9999999999999887
  endloop
endfacet
facet normal -0.0 -0.0 -1.0
  outer loop
    vertex 61.82487306333085 -1.6947813179352316 8.999999999999998
    vertex 68.77681358483423 -26.66117516578173 8.999999999999998
    vertex 60.87259077528878 -1.9999999999999996 8.999999999999998
  endloop
endfacet
facet normal -0.0 -0.0 -1.0
  outer loop
    vertex 68.77681358483423 -26.66117516578173 8.999999999999998
    vertex 61.82487306333085 -1.6947813179352316 8.999999999999998
    vertex 69.7290958728763 -26.355956483716966 8.999999999999998
  endloop
endfacet
facet normal 6.112044527610281e-15 1.9872219571998542e-15 -1.0
  outer loop
    vertex 62.189929556340275 1.762479051592436e-16 1.4027625910663842e-15
    vertex 68.77681358483423 -26.66117516578173 -1.127986593019159e-14
    vertex 60.87259077528878 -1.9999999999999996 -1.127986593019159e-14
  endloop
endfacet
facet normal 6.112044527610281e-15 1.9872219571998542e-15 -1.0
  outer loop
    vertex 68.77681358483423 -26.66117516578173 -1.127986593019159e-14
    vertex 62.189929556340275 1.762479051592436e-16 1.4027625910663842e-15
    vertex 71.1119978651936 -27.836853123622383 0.0
  endloop
endfacet
facet normal 3.650155986526614e-15 -2.3442465950939612e-15 -1.0
  outer loop
    vertex 71.1119978651936 -27.836853123622383 0.0
    vertex 70.81731174550622 -28.295700032550116 0.0
    vertex 68.77681358483423 -26.66117516578173 -1.127986593019159e-14
  endloop
endfacet
facet normal -3.0368702421989438e-15 -4.728619471204641e-15 -1.0
  outer loop
    vertex 54.84677946402611 -28.32443514666226 -1.127986593019159e-14
    vertex 54.17664390101902 -30.282612386161418 1.4723842109358203e-17
    vertex 53.34480786423593 -29.748380752197498 1.4723842109358203e-17
  endloop
endfacet
facet normal 7.170688423885876e-16 -6.009908626508441e-15 -1.0
  outer loop
    vertex 54.84677946402611 -28.32443514666226 -1.127986593019159e-14
    vertex 70.81731174550622 -28.295700032550116 0.0
    vertex 54.17664390101902 -30.282612386161418 1.4723842109358203e-17
  endloop
endfacet
facet normal 7.170688423885876e-16 -6.009908626508441e-15 -1.0
  outer loop
    vertex 70.81731174550622 -28.295700032550116 0.0
    vertex 54.84677946402611 -28.32443514666226 -1.127986593019159e-14
    vertex 68.77681358483423 -26.66117516578173 -1.127986593019159e-14
  endloop
endfacet
facet normal 1.1299526378080813e-06 -1.8906248789169369e-06 -0.9999999999975744
  outer loop
    vertex 25.40000029953056 7.698803661014126 -0.00035543206004160356
    vertex 2.3078930792581477e-15 2.0000000000000018 7.049916206369744e-15
    vertex 0.0 7.700000000000003 0.0
  endloop
endfacet
facet normal 1.1299526378080813e-06 -1.8906248789169369e-06 -0.9999999999975744
  outer loop
    vertex 2.3078930792581477e-15 2.0000000000000018 7.049916206369744e-15
    vertex 25.40000029953056 7.698803661014126 -0.00035543206004160356
    vertex 6.0 7.029251534058413e-15 7.049916206369744e-15
  endloop
endfacet
facet normal 1.1299526378080813e-06 -1.8906248789169369e-06 -0.9999999999975744
  outer loop
    vertex 6.0 7.029251534058413e-15 7.049916206369744e-15
    vertex 25.40000029953056 7.698803661014126 -0.00035543206004160356
    vertex 22.999999999999986 4.000000000000007 -4.93494134445882e-15
  endloop
endfacet
facet normal 1.1299526378080813e-06 -1.8906248789169369e-06 -0.9999999999975744
  outer loop
    vertex 22.999999999999986 4.000000000000007 -4.93494134445882e-15
    vertex 25.40000029953056 7.698803661014126 -0.00035543206004160356
    vertex 25.405631299530544 5.3988036610141235 -0.0003554320600421899
  endloop
endfacet
facet normal 1.1299526378080813e-06 -1.8906248789169369e-06 -0.9999999999975744
  outer loop
    vertex 22.999999999999986 4.000000000000007 -4.93494134445882e-15
    vertex 25.405631299530544 5.3988036610141235 -0.0003554320600421899
    vertex 25.999999999999986 3.9999999999999996 0.0
  endloop
endfacet
facet normal 1.1299526378080813e-06 -1.8906248789169369e-06 -0.9999999999975744
  outer loop
    vertex 25.999999999999986 3.9999999999999996 0.0
    vertex 25.405631299530544 5.3988036610141235 -0.0003554320600421899
    vertex 39.999999999999986 5.4 0.0
  endloop
endfacet
facet normal 1.1299526378080813e-06 -1.8906248789169369e-06 -0.9999999999975744
  outer loop
    vertex 25.999999999999986 3.9999999999999996 0.0
    vertex 39.999999999999986 5.4 0.0
    vertex 25.999999999999986 1.9999999999999998 0.0
  endloop
endfacet
facet normal 1.1299526378080813e-06 -1.8906248789169369e-06 -0.9999999999975744
  outer loop
    vertex 6.0 7.029251534058413e-15 7.049916206369744e-15
    vertex 22.999999999999986 2.000000000000006 -4.93494134445882e-15
    vertex 43.81007044365981 1.762479051592436e-16 1.4027625910663842e-15
  endloop
endfacet
facet normal 1.1299526378080813e-06 -1.8906248789169369e-06 -0.9999999999975744
  outer loop
    vertex 22.999999999999986 2.000000000000006 -4.93494134445882e-15
    vertex 6.0 7.029251534058413e-15 7.049916206369744e-15
    vertex 22.999999999999986 4.000000000000007 -4.93494134445882e-15
  endloop
endfacet
facet normal 1.1299526378080813e-06 -1.8906248789169369e-06 -0.9999999999975744
  outer loop
    vertex 43.81007044365981 1.762479051592436e-16 1.4027625910663842e-15
    vertex 22.999999999999986 2.000000000000006 -4.93494134445882e-15
    vertex 25.999999999999986 1.9999999999999998 0.0
  endloop
endfacet
facet normal 1.1299526378080813e-06 -1.8906248789169369e-06 -0.9999999999975744
  outer loop
    vertex 43.81007044365981 1.762479051592436e-16 1.4027625910663842e-15
    vertex 25.999999999999986 1.9999999999999998 0.0
    vertex 39.999999999999986 3.0 0.0
  endloop
endfacet
facet normal 1.1299526378080813e-06 -1.8906248789169369e-06 -0.9999999999975744
  outer loop
    vertex 39.999999999999986 3.0 0.0
    vertex 25.999999999999986 1.9999999999999998 0.0
    vertex 39.999999999999986 5.4 0.0
  endloop
endfacet
facet normal 1.1299526378080813e-06 -1.8906248789169369e-06 -0.9999999999975744
  outer loop
    vertex 43.81007044365981 1.762479051592436e-16 1.4027625910663842e-15
    vertex 39.999999999999986 3.0 0.0
    vertex 43.000000000000014 3.0 0.0
  endloop
endfacet
facet normal 1.1299526378080813e-06 -1.8906248789169369e-06 -0.9999999999975744
  outer loop
    vertex 68.00000000000003 7.700000000000003 8.308829814650057e-16
    vertex 43.000000000000014 3.0 0.0
    vertex 43.000000000000014 7.700000000000001 4.229949723821846e-15
  endloop
endfacet
facet normal 1.1299526378080813e-06 -1.8906248789169369e-06 -0.9999999999975744
  outer loop
    vertex 43.000000000000014 3.0 0.0
    vertex 68.00000000000003 7.700000000000003 8.308829814650057e-16
    vertex 43.81007044365981 1.762479051592436e-16 1.4027625910663842e-15
  endloop
endfacet
facet normal 1.1299526378080813e-06 -1.8906248789169369e-06 -0.9999999999975744
  outer loop
    vertex 43.81007044365981 1.762479051592436e-16 1.4027625910663842e-15
    vertex 68.00000000000003 7.700000000000003 8.308829814650057e-16
    vertex 46.40946050676257 -1.9999999999999996 -1.127986593019159e-14
  endloop
endfacet
facet normal 1.1299526378080813e-06 -1.8906248789169369e-06 -0.9999999999975744
  outer loop
    vertex 46.40946050676257 -1.9999999999999996 -1.127986593019159e-14
    vertex 68.00000000000003 7.700000000000003 8.308829814650057e-16
    vertex 62.189929556340275 1.762479051592436e-16 1.4027625910663842e-15
  endloop
endfacet
facet normal 1.1299526378080813e-06 -1.8906248789169369e-06 -0.9999999999975744
  outer loop
    vertex 46.40946050676257 -1.9999999999999996 -1.127986593019159e-14
    vertex 62.189929556340275 1.762479051592436e-16 1.4027625910663842e-15
    vertex 60.87259077528878 -1.9999999999999996 -1.127986593019159e-14
  endloop
endfacet
facet normal 1.1299526378080813e-06 -1.8906248789169369e-06 -0.9999999999975744
  outer loop
    vertex 62.189929556340275 1.762479051592436e-16 1.4027625910663842e-15
    vertex 68.00000000000003 7.700000000000003 8.308829814650057e-16
    vertex 67.00000000000003 3.1094062946764094e-17 0.0
  endloop
endfacet
facet normal 1.1299526378080813e-06 -1.8906248789169369e-06 -0.9999999999975744
  outer loop
    vertex 67.00000000000003 3.1094062946764094e-17 0.0
    vertex 68.00000000000003 7.700000000000003 8.308829814650057e-16
    vertex 68.00000000000003 0.9999999999999998 0.0
  endloop
endfacet
facet normal 1.1299526378080813e-06 -1.8906248789169369e-06 -0.9999999999975744
  outer loop
    vertex 46.40946050676257 -1.9999999999999996 -1.127986593019159e-14
    vertex 53.34480786423593 -29.748380752197498 1.4723842109358203e-17
    vertex 43.81007044365981 1.762479051592436e-16 1.4027625910663842e-15
  endloop
endfacet
facet normal 1.1299526378080813e-06 -1.8906248789169369e-06 -0.9999999999975744
  outer loop
    vertex 53.34480786423593 -29.748380752197498 1.4723842109358203e-17
    vertex 46.40946050676257 -1.9999999999999996 -1.127986593019159e-14
    vertex 54.84677946402611 -28.32443514666226 -1.127986593019159e-14
  endloop
endfacet
facet normal 4.8260511115827974e-05 0.9999999988350605 -8.955509160849e-07
  outer loop
    vertex 0.0 12.0 0.0
    vertex 23.037258819243778 11.998907224343517 9.99086048185527
    vertex 23.03711663488126 11.99888034441483 -0.00027751709685014175
  endloop
endfacet
facet normal 4.8260511115827974e-05 0.9999999988350605 -8.955509160849e-07
  outer loop
    vertex 23.037258819243778 11.998907224343517 9.99086048185527
    vertex 0.0 12.0 0.0
    vertex 0.0 12.0 10.0
  endloop
endfacet
facet normal 0.00011627252428711691 0.0013487621445093878 0.9999990836602691
  outer loop
    vertex 15.400000299530562 9.698803661014123 9.999644567939958
    vertex 0.0 12.0 10.0
    vertex 0.0 9.700000000000001 10.0
  endloop
endfacet
facet normal 0.00011627252428711691 0.0013487621445093878 0.9999990836602691
  outer loop
    vertex 0.0 12.0 10.0
    vertex 15.400000299530562 9.698803661014123 9.999644567939958
    vertex 15.400000299530562 10.848803661014122 9.999644567939958
  endloop
endfacet
facet normal 0.00011627252428711691 0.0013487621445093878 0.9999990836602691
  outer loop
    vertex 0.0 12.0 10.0
    vertex 15.400000299530562 10.848803661014122 9.999644567939958
    vertex 23.037258819243778 11.998907224343517 9.99086048185527
  endloop
endfacet
facet normal 0.00011627252428711691 0.0013487621445093878 0.9999990836602691
  outer loop
    vertex 23.037258819243778 11.998907224343517 9.99086048185527
    vertex 15.400000299530562 10.848803661014122 9.999644567939958
    vertex 24.15009062060884 10.848803661014122 9.999644567939958
  endloop
endfacet
facet normal 0.00011627252428711691 0.0013487621445093878 0.9999990836602691
  outer loop
    vertex 23.037258819243778 11.998907224343517 9.99086048185527
    vertex 24.15009062060884 10.848803661014122 9.999644567939958
    vertex 23.763136817916447 11.998864881984566 9.990850151964686
  endloop
endfacet
facet normal 0.00011627252428711691 0.0013487621445093878 0.9999990836602691
  outer loop
    vertex 23.763136817916447 11.998864881984566 9.990850151964686
    vertex 24.15009062060884 10.848803661014122 9.999644567939958
    vertex 24.15009062060884 11.998803661014124 9.999644567939958
  endloop
endfacet
facet normal 5.035654433121249e-17 -1.0 -3.028447688051918e-32
  outer loop
    vertex 25.40000029953056 8.648803661014126 6.62464456793994
    vertex -1.9999999999999936 8.65 3.3750000000000044
    vertex 25.40000029953056 8.648803661014126 3.374644567939939
  endloop
endfacet
facet normal 5.035654433121249e-17 -1.0 -3.028447688051918e-32
  outer loop
    vertex -1.9999999999999936 8.65 3.3750000000000044
    vertex 25.40000029953056 8.648803661014126 6.62464456793994
    vertex -1.9999999999999907 8.65 6.625000000000004
  endloop
endfacet
facet normal 3.395296233901382e-06 0.9999999999942362 -5.524903673563671e-09
  outer loop
    vertex -1.9999999999999907 5.4 6.625000000000004
    vertex 25.40000029953056 5.3988036610141235 6.62464456793994
    vertex -1.9999999999999936 5.4 3.3750000000000044
  endloop
endfacet
facet normal 3.395296233901382e-06 0.9999999999942362 -5.524903673563671e-09
  outer loop
    vertex 25.405631299530544 5.3988036610141155 3.3746445679399377
    vertex 39.999999999999986 5.4 0.0
    vertex 25.405631299530544 5.3988036610141235 -0.0003554320600421899
  endloop
endfacet
facet normal 3.395296233901382e-06 0.9999999999942362 -5.524903673563671e-09
  outer loop
    vertex 39.999999999999986 5.4 0.0
    vertex 25.405631299530544 5.3988036610141155 3.3746445679399377
    vertex 39.999999999999986 5.4 10.0
  endloop
endfacet
facet normal 3.395296233901382e-06 0.9999999999942362 -5.524903673563671e-09
  outer loop
    vertex 39.999999999999986 5.4 10.0
    vertex 25.405631299530544 5.3988036610141155 3.3746445679399377
    vertex 25.40000029953056 5.3988036610141235 6.62464456793994
  endloop
endfacet
facet normal 3.395296233901382e-06 0.9999999999942362 -5.524903673563671e-09
  outer loop
    vertex 25.40000029953056 5.3988036610141235 6.62464456793994
    vertex 25.405631299530544 5.3988036610141155 3.3746445679399377
    vertex -1.9999999999999936 5.4 3.3750000000000044
  endloop
endfacet
facet normal 3.395296233901382e-06 0.9999999999942362 -5.524903673563671e-09
  outer loop
    vertex 39.999999999999986 5.4 10.0
    vertex 25.40000029953056 5.3988036610141235 6.62464456793994
    vertex 25.40000029953056 5.3988036610141235 9.999644567939958
  endloop
endfacet
facet normal 6.797475220687409e-16 -2.1633162815033738e-16 1.0
  outer loop
    vertex 25.405631299530544 5.3988036610141155 3.3746445679399377
    vertex -1.9999999999999936 8.65 3.3750000000000044
    vertex -1.9999999999999936 5.4 3.3750000000000044
  endloop
endfacet
facet normal 6.797475220687409e-16 -2.1633162815033738e-16 1.0
  outer loop
    vertex -1.9999999999999936 8.65 3.3750000000000044
    vertex 25.405631299530544 5.3988036610141155 3.3746445679399377
    vertex 25.40000029953056 8.648803661014126 3.374644567939939
  endloop
endfacet
facet normal -6.546350763057623e-16 1.2939988252904735e-32 -1.0
  outer loop
    vertex 25.40000029953056 8.648803661014126 6.62464456793994
    vertex -1.9999999999999907 5.4 6.625000000000004
    vertex -1.9999999999999907 8.65 6.625000000000004
  endloop
endfacet
facet normal -6.546350763057623e-16 1.2939988252904735e-32 -1.0
  outer loop
    vertex -1.9999999999999907 5.4 6.625000000000004
    vertex 25.40000029953056 8.648803661014126 6.62464456793994
    vertex 25.40000029953056 5.3988036610141235 6.62464456793994
  endloop
endfacet
facet normal 0.707106781186548 -0.707106781186547 -0.0
  outer loop
    vertex 68.00000000000003 0.9999999999999998 0.0
    vertex 67.00000000000003 3.1094062946764094e-17 10.0
    vertex 67.00000000000003 3.1094062946764094e-17 0.0
  endloop
endfacet
facet normal 0.707106781186548 -0.707106781186547 -0.0
  outer loop
    vertex 67.00000000000003 3.1094062946764094e-17 10.0
    vertex 68.00000000000003 0.9999999999999998 0.0
    vertex 68.00000000000003 0.9999999999999998 10.0
  endloop
endfacet
facet normal 0.0 -1.0 0.0
  outer loop
    vertex 1.14270999596228e-15 3.900000000000001 8.125
    vertex -2.0000000000000036 3.900000000000001 1.875000000000001
    vertex -3.959537422789805e-15 3.900000000000001 1.8749999999999993
  endloop
endfacet
facet normal 0.0 -1.0 0.0
  outer loop
    vertex -2.0000000000000036 3.900000000000001 1.875000000000001
    vertex 1.14270999596228e-15 3.900000000000001 8.125
    vertex -1.999999999999999 3.900000000000001 8.125000000000002
  endloop
endfacet
facet normal 1.0 -0.0 -0.0
  outer loop
    vertex 22.999999999999986 2.000000000000006 -4.93494134445882e-15
    vertex 22.999999999999986 3.9999999999999996 10.0
    vertex 22.999999999999986 1.9999999999999998 10.0
  endloop
endfacet
facet normal 1.0 -0.0 -0.0
  outer loop
    vertex 22.999999999999986 3.9999999999999996 10.0
    vertex 22.999999999999986 2.000000000000006 -4.93494134445882e-15
    vertex 22.999999999999986 4.000000000000007 -4.93494134445882e-15
  endloop
endfacet
facet normal 8.163595870003337e-16 -0.0 1.0
  outer loop
    vertex 1.14270999596228e-15 3.900000000000001 8.125
    vertex -1.999999999999999 10.15 8.125000000000002
    vertex -1.999999999999999 3.900000000000001 8.125000000000002
  endloop
endfacet
facet normal 8.163595870003337e-16 -0.0 1.0
  outer loop
    vertex -1.999999999999999 10.15 8.125000000000002
    vertex 1.14270999596228e-15 3.900000000000001 8.125
    vertex 1.14270999596228e-15 10.15 8.125
  endloop
endfacet
facet normal 0.0 1.0 0.0
  outer loop
    vertex -2.0000000000000036 10.15 1.875000000000001
    vertex 1.14270999596228e-15 10.15 8.125
    vertex -3.959537422789805e-15 10.15 1.8749999999999993
  endloop
endfacet
facet normal 0.0 1.0 0.0
  outer loop
    vertex 1.14270999596228e-15 10.15 8.125
    vertex -2.0000000000000036 10.15 1.875000000000001
    vertex -1.999999999999999 10.15 8.125000000000002
  endloop
endfacet
facet normal 1.0 0.0 0.0
  outer loop
    vertex 15.400000299530562 10.848803661014122 0.0
    vertex 15.400000299530562 9.698803661014123 0.9238685679399585
    vertex 15.400000299530562 9.698803661014123 -0.0003554320600414849
  endloop
endfacet
facet normal 1.0 0.0 0.0
  outer loop
    vertex 15.400000299530562 9.698803661014123 0.9238685679399585
    vertex 15.400000299530562 10.848803661014122 0.0
    vertex 15.400000299530562 9.698803661014123 8.999644567939958
  endloop
endfacet
facet normal 1.0 0.0 0.0
  outer loop
    vertex 15.400000299530562 9.698803661014123 8.999644567939958
    vertex 15.400000299530562 10.848803661014122 0.0
    vertex 15.400000299530562 9.698803661014123 9.999644567939958
  endloop
endfacet
facet normal 1.0 0.0 0.0
  outer loop
    vertex 15.400000299530562 9.698803661014123 9.999644567939958
    vertex 15.400000299530562 10.848803661014122 0.0
    vertex 15.400000299530562 10.848803661014122 9.999644567939958
  endloop
endfacet
facet normal -1.0 0.0 8.163595870003335e-16
  outer loop
    vertex -1.999999999999999 3.900000000000001 8.125000000000002
    vertex -1.9999999999999907 5.4 6.625000000000004
    vertex -2.0000000000000036 3.900000000000001 1.875000000000001
  endloop
endfacet
facet normal -1.0 0.0 8.163595870003335e-16
  outer loop
    vertex -1.9999999999999907 5.4 6.625000000000004
    vertex -1.999999999999999 3.900000000000001 8.125000000000002
    vertex -1.999999999999999 10.15 8.125000000000002
  endloop
endfacet
facet normal -1.0 0.0 8.163595870003335e-16
  outer loop
    vertex -1.9999999999999907 5.4 6.625000000000004
    vertex -1.999999999999999 10.15 8.125000000000002
    vertex -1.9999999999999907 8.65 6.625000000000004
  endloop
endfacet
facet normal -1.0 0.0 8.163595870003335e-16
  outer loop
    vertex -1.9999999999999907 8.65 6.625000000000004
    vertex -1.999999999999999 10.15 8.125000000000002
    vertex -1.9999999999999936 8.65 3.3750000000000044
  endloop
endfacet
facet normal -1.0 0.0 8.163595870003335e-16
  outer loop
    vertex -2.0000000000000036 3.900000000000001 1.875000000000001
    vertex -1.9999999999999936 5.4 3.3750000000000044
    vertex -2.0000000000000036 10.15 1.875000000000001
  endloop
endfacet
facet normal -1.0 0.0 8.163595870003335e-16
  outer loop
    vertex -1.9999999999999936 5.4 3.3750000000000044
    vertex -2.0000000000000036 3.900000000000001 1.875000000000001
    vertex -1.9999999999999907 5.4 6.625000000000004
  endloop
endfacet
facet normal -1.0 0.0 8.163595870003335e-16
  outer loop
    vertex -2.0000000000000036 10.15 1.875000000000001
    vertex -1.9999999999999936 5.4 3.3750000000000044
    vertex -1.9999999999999936 8.65 3.3750000000000044
  endloop
endfacet
facet normal -1.0 0.0 8.163595870003335e-16
  outer loop
    vertex -2.0000000000000036 10.15 1.875000000000001
    vertex -1.9999999999999936 8.65 3.3750000000000044
    vertex -1.999999999999999 10.15 8.125000000000002
  endloop
endfacet
facet normal -8.163595870003337e-16 -0.0 -1.0
  outer loop
    vertex -3.959537422789805e-15 10.15 1.8749999999999993
    vertex -2.0000000000000036 3.900000000000001 1.875000000000001
    vertex -2.0000000000000036 10.15 1.875000000000001
  endloop
endfacet
facet normal -8.163595870003337e-16 -0.0 -1.0
  outer loop
    vertex -2.0000000000000036 3.900000000000001 1.875000000000001
    vertex -3.959537422789805e-15 10.15 1.8749999999999993
    vertex -3.959537422789805e-15 3.900000000000001 1.8749999999999993
  endloop
endfacet
facet normal -0.0 -1.0 0.0
  outer loop
    vertex 24.15009062060884 10.848803661014122 9.999644567939958
    vertex 15.400000299530562 10.848803661014122 0.0
    vertex 24.15009062060884 10.848803661014122 0.0
  endloop
endfacet
facet normal -0.0 -1.0 0.0
  outer loop
    vertex 15.400000299530562 10.848803661014122 0.0
    vertex 24.15009062060884 10.848803661014122 9.999644567939958
    vertex 15.400000299530562 10.848803661014122 9.999644567939958
  endloop
endfacet
facet normal 0.0 1.0 0.0
  outer loop
    vertex 15.400000299530562 9.698803661014123 8.999644567939958
    vertex 25.40000029953056 9.698803661014123 0.9238685679399585
    vertex 15.400000299530562 9.698803661014123 0.9238685679399585
  endloop
endfacet
facet normal 0.0 1.0 0.0
  outer loop
    vertex 25.40000029953056 9.698803661014123 0.9238685679399585
    vertex 15.400000299530562 9.698803661014123 8.999644567939958
    vertex 25.40000029953056 9.698803661014123 8.999644567939958
  endloop
endfacet
facet normal -9.684830805796838e-17 -1.0 -2.2205828830762334e-16
  outer loop
    vertex 43.00000000000004 0.0 0.9999999999999998
    vertex 6.0 7.029251534058413e-15 7.049916206369744e-15
    vertex 43.81007044365981 1.762479051592436e-16 1.4027625910663842e-15
  endloop
endfacet
facet normal -9.684830805796838e-17 -1.0 -2.2205828830762334e-16
  outer loop
    vertex 6.0 7.029251534058413e-15 7.049916206369744e-15
    vertex 43.00000000000004 0.0 0.9999999999999998
    vertex 6.0 -2.0664672311325776e-17 9.999999999999996
  endloop
endfacet
facet normal -9.684830805796838e-17 -1.0 -2.2205828830762334e-16
  outer loop
    vertex 6.0 -2.0664672311325776e-17 9.999999999999996
    vertex 43.00000000000004 0.0 0.9999999999999998
    vertex 43.00000000000004 0.0 8.999999999999998
  endloop
endfacet
facet normal -9.684830805796838e-17 -1.0 -2.2205828830762334e-16
  outer loop
    vertex 6.0 -2.0664672311325776e-17 9.999999999999996
    vertex 43.00000000000004 0.0 8.999999999999998
    vertex 43.66821728832921 3.524958103184872e-16 9.999999999999998
  endloop
endfacet
facet normal -1.0 -1.2013820974963442e-16 -4.423299216135953e-17
  outer loop
    vertex 0.0 12.0 10.0
    vertex 0.0 9.700000000000001 9.0
    vertex 0.0 9.700000000000001 10.0
  endloop
endfacet
facet normal -1.0 -1.2013820974963442e-16 -4.423299216135953e-17
  outer loop
    vertex 0.0 9.700000000000001 9.0
    vertex 0.0 12.0 10.0
    vertex 1.14270999596228e-15 10.15 8.125
  endloop
endfacet
facet normal -1.0 -1.2013820974963442e-16 -4.423299216135953e-17
  outer loop
    vertex 1.14270999596228e-15 10.15 8.125
    vertex 0.0 12.0 10.0
    vertex -3.959537422789805e-15 10.15 1.8749999999999993
  endloop
endfacet
facet normal -1.0 -1.2013820974963442e-16 -4.423299216135953e-17
  outer loop
    vertex -3.959537422789805e-15 10.15 1.8749999999999993
    vertex 0.0 7.700000000000003 0.9242239999999999
    vertex -3.959537422789805e-15 3.900000000000001 1.8749999999999993
  endloop
endfacet
facet normal -1.0 -1.2013820974963442e-16 -4.423299216135953e-17
  outer loop
    vertex 0.0 7.700000000000003 0.9242239999999999
    vertex -3.959537422789805e-15 10.15 1.8749999999999993
    vertex 0.0 9.700000000000001 0.9242240000000007
  endloop
endfacet
facet normal -1.0 -1.2013820974963442e-16 -4.423299216135953e-17
  outer loop
    vertex 0.0 9.700000000000001 0.9242240000000007
    vertex -3.959537422789805e-15 10.15 1.8749999999999993
    vertex 0.0 9.700000000000001 7.049916206369744e-16
  endloop
endfacet
facet normal -1.0 -1.2013820974963442e-16 -4.423299216135953e-17
  outer loop
    vertex 0.0 9.700000000000001 7.049916206369744e-16
    vertex -3.959537422789805e-15 10.15 1.8749999999999993
    vertex 0.0 12.0 0.0
  endloop
endfacet
facet normal -1.0 -1.2013820974963442e-16 -4.423299216135953e-17
  outer loop
    vertex 0.0 12.0 0.0
    vertex -3.959537422789805e-15 10.15 1.8749999999999993
    vertex 0.0 12.0 10.0
  endloop
endfacet
facet normal -1.0 -1.2013820974963442e-16 -4.423299216135953e-17
  outer loop
    vertex -4.207898953176459e-17 1.9999999999999991 9.999999999999996
    vertex 1.14270999596228e-15 3.900000000000001 8.125
    vertex 2.3078930792581477e-15 2.0000000000000018 7.049916206369744e-15
  endloop
endfacet
facet normal -1.0 -1.2013820974963442e-16 -4.423299216135953e-17
  outer loop
    vertex 1.14270999596228e-15 3.900000000000001 8.125
    vertex -4.207898953176459e-17 1.9999999999999991 9.999999999999996
    vertex 0.0 7.700000000000001 10.0
  endloop
endfacet
facet normal -1.0 -1.2013820974963442e-16 -4.423299216135953e-17
  outer loop
    vertex 1.14270999596228e-15 3.900000000000001 8.125
    vertex 0.0 7.700000000000001 10.0
    vertex 0.0 7.700000000000001 9.0
  endloop
endfacet
facet normal -1.0 -1.2013820974963442e-16 -4.423299216135953e-17
  outer loop
    vertex 1.14270999596228e-15 3.900000000000001 8.125
    vertex 0.0 7.700000000000001 9.0
    vertex 1.14270999596228e-15 10.15 8.125
  endloop
endfacet
facet normal -1.0 -1.2013820974963442e-16 -4.423299216135953e-17
  outer loop
    vertex 1.14270999596228e-15 10.15 8.125
    vertex 0.0 7.700000000000001 9.0
    vertex 0.0 9.700000000000001 9.0
  endloop
endfacet
facet normal -1.0 -1.2013820974963442e-16 -4.423299216135953e-17
  outer loop
    vertex 2.3078930792581477e-15 2.0000000000000018 7.049916206369744e-15
    vertex -3.959537422789805e-15 3.900000000000001 1.8749999999999993
    vertex 0.0 7.700000000000003 0.0
  endloop
endfacet
facet normal -1.0 -1.2013820974963442e-16 -4.423299216135953e-17
  outer loop
    vertex -3.959537422789805e-15 3.900000000000001 1.8749999999999993
    vertex 2.3078930792581477e-15 2.0000000000000018 7.049916206369744e-15
    vertex 1.14270999596228e-15 3.900000000000001 8.125
  endloop
endfacet
facet normal -1.0 -1.2013820974963442e-16 -4.423299216135953e-17
  outer loop
    vertex 0.0 7.700000000000003 0.0
    vertex -3.959537422789805e-15 3.900000000000001 1.8749999999999993
    vertex 0.0 7.700000000000003 0.9242239999999999
  endloop
endfacet
facet normal -9.973685846606613e-06 -1.0427111187997901e-05 -0.9999999998959006
  outer loop
    vertex 23.03711663488126 11.99888034441483 -0.00027751709685014175
    vertex 0.0 9.700000000000001 7.049916206369744e-16
    vertex 0.0 12.0 0.0
  endloop
endfacet
facet normal -9.973685846606613e-06 -1.0427111187997901e-05 -0.9999999998959006
  outer loop
    vertex 0.0 9.700000000000001 7.049916206369744e-16
    vertex 23.03711663488126 11.99888034441483 -0.00027751709685014175
    vertex 15.400000299530562 10.848803661014122 0.0
  endloop
endfacet
facet normal -9.973685846606613e-06 -1.0427111187997901e-05 -0.9999999998959006
  outer loop
    vertex 15.400000299530562 10.848803661014122 0.0
    vertex 23.03711663488126 11.99888034441483 -0.00027751709685014175
    vertex 24.15009062060884 10.848803661014122 0.0
  endloop
endfacet
facet normal -9.973685846606613e-06 -1.0427111187997901e-05 -0.9999999998959006
  outer loop
    vertex 24.15009062060884 10.848803661014122 0.0
    vertex 23.03711663488126 11.99888034441483 -0.00027751709685014175
    vertex 23.76299463355393 11.99883800205588 -0.0002878469874353565
  endloop
endfacet
facet normal -9.973685846606613e-06 -1.0427111187997901e-05 -0.9999999998959006
  outer loop
    vertex 24.15009062060884 10.848803661014122 0.0
    vertex 23.76299463355393 11.99883800205588 -0.0002878469874353565
    vertex 24.15000029240947 11.99881591871094 -0.00035179033805761623
  endloop
endfacet
facet normal -9.973685846606613e-06 -1.0427111187997901e-05 -0.9999999998959006
  outer loop
    vertex 15.400000299530562 9.698803661014123 -0.0003554320600414849
    vertex 0.0 9.700000000000001 7.049916206369744e-16
    vertex 15.400000299530562 10.848803661014122 0.0
  endloop
endfacet
facet normal -0.3162277660168375 -0.948683298050514 -5.060969575686464e-16
  outer loop
    vertex 6.0 -2.0664672311325776e-17 9.999999999999996
    vertex 2.3078930792581477e-15 2.0000000000000018 7.049916206369744e-15
    vertex 6.0 7.029251534058413e-15 7.049916206369744e-15
  endloop
endfacet
facet normal -0.3162277660168375 -0.948683298050514 -5.060969575686464e-16
  outer loop
    vertex 2.3078930792581477e-15 2.0000000000000018 7.049916206369744e-15
    vertex 6.0 -2.0664672311325776e-17 9.999999999999996
    vertex -4.207898953176459e-17 1.9999999999999991 9.999999999999996
  endloop
endfacet
facet normal -8.460680899888859e-07 1.479861203761336e-06 0.9999999999985472
  outer loop
    vertex 53.23098033557705 -29.83582070741325 9.999999999999998
    vertex 46.40946050676257 -1.9999999999999996 9.999999999999998
    vertex 43.66821728832921 3.524958103184872e-16 9.999999999999998
  endloop
endfacet
facet normal -8.460680899888859e-07 1.479861203761336e-06 0.9999999999985472
  outer loop
    vertex 46.40946050676257 -1.9999999999999996 9.999999999999998
    vertex 53.23098033557705 -29.83582070741325 9.999999999999998
    vertex 54.84677946402611 -28.32443514666226 9.999999999999998
  endloop
endfacet
facet normal -8.460680899888859e-07 1.479861203761336e-06 0.9999999999985472
  outer loop
    vertex 54.84677946402611 -28.32443514666226 9.999999999999998
    vertex 53.23098033557705 -29.83582070741325 9.999999999999998
    vertex 54.14447635110527 -30.422496984245942 9.999999999999998
  endloop
endfacet
facet normal -8.460680899888859e-07 1.479861203761336e-06 0.9999999999985472
  outer loop
    vertex 54.84677946402611 -28.32443514666226 9.999999999999998
    vertex 54.14447635110527 -30.422496984245942 9.999999999999998
    vertex 70.89656079301075 -28.422281377671652 9.999999999999998
  endloop
endfacet
facet normal -8.460680899888859e-07 1.479861203761336e-06 0.9999999999985472
  outer loop
    vertex 54.84677946402611 -28.32443514666226 9.999999999999998
    vertex 70.89656079301075 -28.422281377671652 9.999999999999998
    vertex 68.77681358483423 -26.66117516578173 9.999999999999998
  endloop
endfacet
facet normal -8.460680899888859e-07 1.479861203761336e-06 0.9999999999985472
  outer loop
    vertex 68.77681358483423 -26.66117516578173 9.999999999999998
    vertex 62.33178271167086 3.524958103184872e-16 9.999999999999998
    vertex 60.87259077528878 -1.9999999999999996 9.999999999999998
  endloop
endfacet
facet normal -8.460680899888859e-07 1.479861203761336e-06 0.9999999999985472
  outer loop
    vertex 62.33178271167086 3.524958103184872e-16 9.999999999999998
    vertex 68.77681358483423 -26.66117516578173 9.999999999999998
    vertex 71.26007337098929 -27.856266857073482 9.999999999999998
  endloop
endfacet
facet normal -8.460680899888859e-07 1.479861203761336e-06 0.9999999999985472
  outer loop
    vertex 71.26007337098929 -27.856266857073482 9.999999999999998
    vertex 68.77681358483423 -26.66117516578173 9.999999999999998
    vertex 70.89656079301075 -28.422281377671652 9.999999999999998
  endloop
endfacet
facet normal -8.460680899888859e-07 1.479861203761336e-06 0.9999999999985472
  outer loop
    vertex 43.66821728832921 3.524958103184872e-16 9.999999999999998
    vertex 22.999999999999986 1.9999999999999998 10.0
    vertex 6.0 -2.0664672311325776e-17 9.999999999999996
  endloop
endfacet
facet normal -8.460680899888859e-07 1.479861203761336e-06 0.9999999999985472
  outer loop
    vertex 22.999999999999986 1.9999999999999998 10.0
    vertex 43.66821728832921 3.524958103184872e-16 9.999999999999998
    vertex 25.999999999999986 1.9999999999999998 10.0
  endloop
endfacet
facet normal -8.460680899888859e-07 1.479861203761336e-06 0.9999999999985472
  outer loop
    vertex 25.999999999999986 1.9999999999999998 10.0
    vertex 43.66821728832921 3.524958103184872e-16 9.999999999999998
    vertex 25.999999999999986 3.9999999999999996 10.0
  endloop
endfacet
facet normal -8.460680899888859e-07 1.479861203761336e-06 0.9999999999985472
  outer loop
    vertex 25.999999999999986 3.9999999999999996 10.0
    vertex 43.66821728832921 3.524958103184872e-16 9.999999999999998
    vertex 39.999999999999986 3.0 10.0
  endloop
endfacet
facet normal -8.460680899888859e-07 1.479861203761336e-06 0.9999999999985472
  outer loop
    vertex 39.999999999999986 3.0 10.0
    vertex 43.66821728832921 3.524958103184872e-16 9.999999999999998
    vertex 43.000000000000014 3.0 10.0
  endloop
endfacet
facet normal -8.460680899888859e-07 1.479861203761336e-06 0.9999999999985472
  outer loop
    vertex 43.000000000000014 3.0 10.0
    vertex 43.66821728832921 3.524958103184872e-16 9.999999999999998
    vertex 43.000000000000014 7.700000000000001 10.0
  endloop
endfacet
facet normal -8.460680899888859e-07 1.479861203761336e-06 0.9999999999985472
  outer loop
    vertex 43.000000000000014 7.700000000000001 10.0
    vertex 43.66821728832921 3.524958103184872e-16 9.999999999999998
    vertex 68.00000000000003 7.700000000000001 10.0
  endloop
endfacet
facet normal -8.460680899888859e-07 1.479861203761336e-06 0.9999999999985472
  outer loop
    vertex 68.00000000000003 7.700000000000001 10.0
    vertex 43.66821728832921 3.524958103184872e-16 9.999999999999998
    vertex 46.40946050676257 -1.9999999999999996 9.999999999999998
  endloop
endfacet
facet normal -8.460680899888859e-07 1.479861203761336e-06 0.9999999999985472
  outer loop
    vertex 68.00000000000003 7.700000000000001 10.0
    vertex 46.40946050676257 -1.9999999999999996 9.999999999999998
    vertex 62.33178271167086 3.524958103184872e-16 9.999999999999998
  endloop
endfacet
facet normal -8.460680899888859e-07 1.479861203761336e-06 0.9999999999985472
  outer loop
    vertex 62.33178271167086 3.524958103184872e-16 9.999999999999998
    vertex 46.40946050676257 -1.9999999999999996 9.999999999999998
    vertex 60.87259077528878 -1.9999999999999996 9.999999999999998
  endloop
endfacet
facet normal -8.460680899888859e-07 1.479861203761336e-06 0.9999999999985472
  outer loop
    vertex 68.00000000000003 7.700000000000001 10.0
    vertex 62.33178271167086 3.524958103184872e-16 9.999999999999998
    vertex 67.00000000000003 3.1094062946764094e-17 10.0
  endloop
endfacet
facet normal -8.460680899888859e-07 1.479861203761336e-06 0.9999999999985472
  outer loop
    vertex 68.00000000000003 7.700000000000001 10.0
    vertex 67.00000000000003 3.1094062946764094e-17 10.0
    vertex 68.00000000000003 0.9999999999999998 10.0
  endloop
endfacet
facet normal -8.460680899888859e-07 1.479861203761336e-06 0.9999999999985472
  outer loop
    vertex 25.999999999999986 3.9999999999999996 10.0
    vertex 25.40000029953056 5.3988036610141235 9.999644567939958
    vertex 22.999999999999986 3.9999999999999996 10.0
  endloop
endfacet
facet normal -8.460680899888859e-07 1.479861203761336e-06 0.9999999999985472
  outer loop
    vertex 25.40000029953056 5.3988036610141235 9.999644567939958
    vertex 25.999999999999986 3.9999999999999996 10.0
    vertex 39.999999999999986 5.4 10.0
  endloop
endfacet
facet normal -8.460680899888859e-07 1.479861203761336e-06 0.9999999999985472
  outer loop
    vertex 39.999999999999986 5.4 10.0
    vertex 25.999999999999986 3.9999999999999996 10.0
    vertex 39.999999999999986 3.0 10.0
  endloop
endfacet
facet normal -8.460680899888859e-07 1.479861203761336e-06 0.9999999999985472
  outer loop
    vertex 6.0 -2.0664672311325776e-17 9.999999999999996
    vertex 0.0 7.700000000000001 10.0
    vertex -4.207898953176459e-17 1.9999999999999991 9.999999999999996
  endloop
endfacet
facet normal -8.460680899888859e-07 1.479861203761336e-06 0.9999999999985472
  outer loop
    vertex 0.0 7.700000000000001 10.0
    vertex 6.0 -2.0664672311325776e-17 9.999999999999996
    vertex 25.40000029953056 7.698803661014124 9.999644567939958
  endloop
endfacet
facet normal -8.460680899888859e-07 1.479861203761336e-06 0.9999999999985472
  outer loop
    vertex 25.40000029953056 7.698803661014124 9.999644567939958
    vertex 6.0 -2.0664672311325776e-17 9.999999999999996
    vertex 22.999999999999986 3.9999999999999996 10.0
  endloop
endfacet
facet normal -8.460680899888859e-07 1.479861203761336e-06 0.9999999999985472
  outer loop
    vertex 22.999999999999986 3.9999999999999996 10.0
    vertex 6.0 -2.0664672311325776e-17 9.999999999999996
    vertex 22.999999999999986 1.9999999999999998 10.0
  endloop
endfacet
facet normal -8.460680899888859e-07 1.479861203761336e-06 0.9999999999985472
  outer loop
    vertex 25.40000029953056 7.698803661014124 9.999644567939958
    vertex 22.999999999999986 3.9999999999999996 10.0
    vertex 25.40000029953056 5.3988036610141235 9.999644567939958
  endloop
endfacet
facet normal 0.9999999992186381 3.927243930864202e-05 -4.51654642488261e-06
  outer loop
    vertex 24.15000029240947 11.99881591871094 -0.00035179033805761623
    vertex 24.15009062060884 10.848803661014122 9.999644567939958
    vertex 24.15009062060884 10.848803661014122 0.0
  endloop
endfacet
facet normal 0.9999999992186381 3.927243930864202e-05 -4.51654642488261e-06
  outer loop
    vertex 24.15009062060884 10.848803661014122 9.999644567939958
    vertex 24.15000029240947 11.99881591871094 -0.00035179033805761623
    vertex 24.15009062060884 11.998803661014124 9.999644567939958
  endloop
endfacet
facet normal 0.00010731767042888668 0.99999999424134 -4.878184048139863e-07
  outer loop
    vertex 23.76299463355393 11.99883800205588 -0.0002878469874353565
    vertex 24.15009062060884 11.998803661014124 9.999644567939958
    vertex 24.15000029240947 11.99881591871094 -0.00035179033805761623
  endloop
endfacet
facet normal 0.00010731767042888668 0.99999999424134 -4.878184048139863e-07
  outer loop
    vertex 24.15009062060884 11.998803661014124 9.999644567939958
    vertex 23.76299463355393 11.99883800205588 -0.0002878469874353565
    vertex 23.763136817916447 11.998864881984566 9.990850151964686
  endloop
endfacet
facet normal -1.4231047806839069e-05 -2.6903770809121634e-06 -0.9999999998951197
  outer loop
    vertex 23.085750954319593 12.180348113521559 -0.0002786974309021745
    vertex 23.76299463355393 11.99883800205588 -0.0002878469874353565
    vertex 23.03711663488126 11.99888034441483 -0.00027751709685014175
  endloop
endfacet
facet normal -1.4231047806839069e-05 -2.6903770809121634e-06 -0.9999999998951197
  outer loop
    vertex 23.76299463355393 11.99883800205588 -0.0002878469874353565
    vertex 23.085750954319593 12.180348113521559 -0.0002786974309021745
    vertex 23.218603714186337 12.31318633258494 -0.0002809454497793817
  endloop
endfacet
facet normal -1.4231047806839069e-05 -2.6903770809121634e-06 -0.9999999998951197
  outer loop
    vertex 23.76299463355393 11.99883800205588 -0.0002878469874353565
    vertex 23.218603714186337 12.31318633258494 -0.0002809454497793817
    vertex 23.40007680553579 12.361800788890728 -0.0002836587932373613
  endloop
endfacet
facet normal -1.4231047806839069e-05 -2.6903770809121634e-06 -0.9999999998951197
  outer loop
    vertex 23.76299463355393 11.99883800205588 -0.0002878469874353565
    vertex 23.40007680553579 12.361800788890728 -0.0002836587932373613
    vertex 23.58154422403765 12.313165161317354 -0.0002861104165679629
  endloop
endfacet
facet normal -1.4231047806839069e-05 -2.6903770809121634e-06 -0.9999999998951197
  outer loop
    vertex 23.76299463355393 11.99883800205588 -0.0002878469874353565
    vertex 23.58154422403765 12.313165161317354 -0.0002861104165679629
    vertex 23.714381485410186 12.180311443861308 -0.0002876434033886881
  endloop
endfacet
facet normal 0.2588765500480454 0.9659104160302596 -6.2827478059643806e-06
  outer loop
    vertex 23.40007680553579 12.361800788890728 -0.0002836587932373613
    vertex 23.581686408400166 12.31319204124604 9.990851888535552
    vertex 23.58154422403765 12.313165161317354 -0.0002861104165679629
  endloop
endfacet
facet normal 0.2588765500480454 0.9659104160302596 -6.2827478059643806e-06
  outer loop
    vertex 23.581686408400166 12.31319204124604 9.990851888535552
    vertex 23.40007680553579 12.361800788890728 -0.0002836587932373613
    vertex 23.400218989898306 12.361827668819414 9.990854340158885
  endloop
endfacet
facet normal 0.7071505757335893 0.7070629838256801 -1.1965759697599431e-05
  outer loop
    vertex 23.58154422403765 12.313165161317354 -0.0002861104165679629
    vertex 23.714523669772703 12.180338323789995 9.990850355548732
    vertex 23.714381485410186 12.180311443861308 -0.0002876434033886881
  endloop
endfacet
facet normal 0.7071505757335893 0.7070629838256801 -1.1965759697599431e-05
  outer loop
    vertex 23.714523669772703 12.180338323789995 9.990850355548732
    vertex 23.58154422403765 12.313165161317354 -0.0002861104165679629
    vertex 23.581686408400166 12.31319204124604 9.990851888535552
  endloop
endfacet
facet normal 0.965942476537174 0.25875689713057787 -1.4442527188727845e-05
  outer loop
    vertex 23.714381485410186 12.180311443861308 -0.0002876434033886881
    vertex 23.763136817916447 11.998864881984566 9.990850151964686
    vertex 23.76299463355393 11.99883800205588 -0.0002878469874353565
  endloop
endfacet
facet normal 0.965942476537174 0.25875689713057787 -1.4442527188727845e-05
  outer loop
    vertex 23.763136817916447 11.998864881984566 9.990850151964686
    vertex 23.714381485410186 12.180311443861308 -0.0002876434033886881
    vertex 23.714523669772703 12.180338323789995 9.990850355548732
  endloop
endfacet
facet normal -0.2587638602074841 0.9659406113469644 1.0837363831184335e-06
  outer loop
    vertex 23.218603714186337 12.31318633258494 -0.0002809454497793817
    vertex 23.400218989898306 12.361827668819414 9.990854340158885
    vertex 23.40007680553579 12.361800788890728 -0.0002836587932373613
  endloop
endfacet
facet normal -0.2587638602074841 0.9659406113469644 1.0837363831184335e-06
  outer loop
    vertex 23.400218989898306 12.361827668819414 9.990854340158885
    vertex 23.218603714186337 12.31318633258494 -0.0002809454497793817
    vertex 23.218745898548853 12.313213212513627 9.99085705350234
  endloop
endfacet
facet normal 1.4231047807026971e-05 2.6903770809292434e-06 0.9999999998951197
  outer loop
    vertex 23.763136817916447 11.998864881984566 9.990850151964686
    vertex 23.08589313868211 12.180374993450245 9.990859301521219
    vertex 23.037258819243778 11.998907224343517 9.99086048185527
  endloop
endfacet
facet normal 1.4231047807026971e-05 2.6903770809292434e-06 0.9999999998951197
  outer loop
    vertex 23.08589313868211 12.180374993450245 9.990859301521219
    vertex 23.763136817916447 11.998864881984566 9.990850151964686
    vertex 23.218745898548853 12.313213212513627 9.99085705350234
  endloop
endfacet
facet normal 1.4231047807026971e-05 2.6903770809292434e-06 0.9999999998951197
  outer loop
    vertex 23.218745898548853 12.313213212513627 9.99085705350234
    vertex 23.763136817916447 11.998864881984566 9.990850151964686
    vertex 23.400218989898306 12.361827668819414 9.990854340158885
  endloop
endfacet
facet normal 1.4231047807026971e-05 2.6903770809292434e-06 0.9999999998951197
  outer loop
    vertex 23.400218989898306 12.361827668819414 9.990854340158885
    vertex 23.763136817916447 11.998864881984566 9.990850151964686
    vertex 23.581686408400166 12.31319204124604 9.990851888535552
  endloop
endfacet
facet normal 1.4231047807026971e-05 2.6903770809292434e-06 0.9999999998951197
  outer loop
    vertex 23.581686408400166 12.31319204124604 9.990851888535552
    vertex 23.763136817916447 11.998864881984566 9.990850151964686
    vertex 23.714523669772703 12.180338323789995 9.990850355548732
  endloop
endfacet
facet normal -0.7070680813155894 0.7071454788925037 8.159831679464884e-06
  outer loop
    vertex 23.085750954319593 12.180348113521559 -0.0002786974309021745
    vertex 23.218745898548853 12.313213212513627 9.99085705350234
    vertex 23.218603714186337 12.31318633258494 -0.0002809454497793817
  endloop
endfacet
facet normal -0.7070680813155894 0.7071454788925037 8.159831679464884e-06
  outer loop
    vertex 23.218745898548853 12.313213212513627 9.99085705350234
    vertex 23.085750954319593 12.180348113521559 -0.0002786974309021745
    vertex 23.08589313868211 12.180374993450245 9.990859301521219
  endloop
endfacet
facet normal -0.9659122820526235 0.2588695872627841 1.3049487059379983e-05
  outer loop
    vertex 23.037258819243778 11.998907224343517 9.99086048185527
    vertex 23.085750954319593 12.180348113521559 -0.0002786974309021745
    vertex 23.03711663488126 11.99888034441483 -0.00027751709685014175
  endloop
endfacet
facet normal -0.9659122820526235 0.2588695872627841 1.3049487059379983e-05
  outer loop
    vertex 23.085750954319593 12.180348113521559 -0.0002786974309021745
    vertex 23.037258819243778 11.998907224343517 9.99086048185527
    vertex 23.08589313868211 12.180374993450245 9.990859301521219
  endloop
endfacet
facet normal -0.455908890689344 -0.709882044893683 0.5368561871935302
  outer loop
    vertex 54.14447635110527 -30.422496984245942 9.999999999999998
    vertex 52.69478131793528 -30.247717711957918 8.999999999999998
    vertex 53.99294702540592 -31.081441133871667 8.999999999999998
  endloop
endfacet
facet normal -0.455908890689344 -0.709882044893683 0.5368561871935302
  outer loop
    vertex 52.69478131793528 -30.247717711957918 8.999999999999998
    vertex 54.14447635110527 -30.422496984245942 9.999999999999998
    vertex 53.23098033557705 -29.83582070741325 9.999999999999998
  endloop
endfacet
facet normal -0.803415590362689 -0.25750499691111833 0.5368561871935325
  outer loop
    vertex 53.23098033557705 -29.83582070741325 9.999999999999998
    vertex 43.00000000000004 0.0 8.999999999999998
    vertex 52.69478131793528 -30.247717711957918 8.999999999999998
  endloop
endfacet
facet normal -0.803415590362689 -0.25750499691111833 0.5368561871935325
  outer loop
    vertex 43.00000000000004 0.0 8.999999999999998
    vertex 53.23098033557705 -29.83582070741325 9.999999999999998
    vertex 43.66821728832921 3.524958103184872e-16 9.999999999999998
  endloop
endfacet
facet normal 0.8034155903626874 0.2575049969111178 0.536856187193535
  outer loop
    vertex 63.00000000000003 0.0 8.999999999999998
    vertex 71.26007337098929 -27.856266857073482 9.999999999999998
    vertex 71.95760183075578 -27.947717711957928 8.999999999999998
  endloop
endfacet
facet normal 0.8034155903626874 0.2575049969111178 0.536856187193535
  outer loop
    vertex 71.26007337098929 -27.856266857073482 9.999999999999998
    vertex 63.00000000000003 0.0 8.999999999999998
    vertex 62.33178271167086 3.524958103184872e-16 9.999999999999998
  endloop
endfacet
facet normal 0.709882044893676 -0.45590889068934703 0.536856187193537
  outer loop
    vertex 71.95760183075578 -27.947717711957928 8.999999999999998
    vertex 70.89656079301075 -28.422281377671652 9.999999999999998
    vertex 71.26987348741467 -29.018558866128323 8.999999999999998
  endloop
endfacet
facet normal 0.709882044893676 -0.45590889068934703 0.536856187193537
  outer loop
    vertex 70.89656079301075 -28.422281377671652 9.999999999999998
    vertex 71.95760183075578 -27.947717711957928 8.999999999999998
    vertex 71.26007337098929 -27.856266857073482 9.999999999999998
  endloop
endfacet
facet normal 0.10002500584050936 -0.8377233627389339 0.5368561871935339
  outer loop
    vertex 70.89656079301075 -28.422281377671652 9.999999999999998
    vertex 54.985894050811794 -30.962882267743343 8.999999999999998
    vertex 71.26987348741467 -29.018558866128323 8.999999999999998
  endloop
endfacet
facet normal 0.10002500584050936 -0.8377233627389339 0.5368561871935339
  outer loop
    vertex 54.985894050811794 -30.962882267743343 8.999999999999998
    vertex 70.89656079301075 -28.422281377671652 9.999999999999998
    vertex 53.99294702540592 -31.081441133871667 8.999999999999998
  endloop
endfacet
facet normal 0.10002500584050936 -0.8377233627389339 0.5368561871935339
  outer loop
    vertex 53.99294702540592 -31.081441133871667 8.999999999999998
    vertex 70.89656079301075 -28.422281377671652 9.999999999999998
    vertex 54.14447635110527 -30.422496984245942 9.999999999999998
  endloop
endfacet
facet normal 0.8414176997065335 -0.5403852834974007 -0.0
  outer loop
    vertex 71.95760183075578 -27.947717711957928 0.9999999999999983
    vertex 71.26987348741467 -29.018558866128323 8.999999999999998
    vertex 71.26987348741467 -29.018558866128323 0.9999999999999983
  endloop
endfacet
facet normal 0.8414176997065335 -0.5403852834974007 -0.0
  outer loop
    vertex 71.26987348741467 -29.018558866128323 8.999999999999998
    vertex 71.95760183075578 -27.947717711957928 0.9999999999999983
    vertex 71.95760183075578 -27.947717711957928 8.999999999999998
  endloop
endfacet
facet normal -0.5403852834974006 -0.8414176997065335 0.0
  outer loop
    vertex 53.99294702540592 -31.081441133871667 8.999999999999998
    vertex 52.69478131793528 -30.247717711957918 0.9999999999999983
    vertex 53.99294702540592 -31.081441133871667 0.9999999999999983
  endloop
endfacet
facet normal -0.5403852834974006 -0.8414176997065335 0.0
  outer loop
    vertex 52.69478131793528 -30.247717711957918 0.9999999999999983
    vertex 53.99294702540592 -31.081441133871667 8.999999999999998
    vertex 52.69478131793528 -30.247717711957918 8.999999999999998
  endloop
endfacet
facet normal -0.42787013472666907 -0.6662237398560982 -0.6107970827215337
  outer loop
    vertex 53.99294702540592 -31.081441133871667 0.9999999999999983
    vertex 53.34480786423593 -29.748380752197498 1.4723842109358203e-17
    vertex 54.17664390101902 -30.282612386161418 1.4723842109358203e-17
  endloop
endfacet
facet normal -0.42787013472666907 -0.6662237398560982 -0.6107970827215337
  outer loop
    vertex 53.34480786423593 -29.748380752197498 1.4723842109358203e-17
    vertex 53.99294702540592 -31.081441133871667 0.9999999999999983
    vertex 52.69478131793528 -30.247717711957918 0.9999999999999983
  endloop
endfacet
facet normal 0.11855886612832837 -0.99294702540587 -1.4879767459396824e-16
  outer loop
    vertex 71.26987348741467 -29.018558866128323 8.999999999999998
    vertex 70.2769264620088 -29.137117732256648 0.9999999999999998
    vertex 71.26987348741467 -29.018558866128323 0.9999999999999983
  endloop
endfacet
facet normal 0.11855886612832837 -0.99294702540587 -1.4879767459396824e-16
  outer loop
    vertex 70.2769264620088 -29.137117732256648 0.9999999999999998
    vertex 53.99294702540592 -31.081441133871667 8.999999999999998
    vertex 53.99294702540592 -31.081441133871667 0.9999999999999983
  endloop
endfacet
facet normal 0.11855886612832837 -0.99294702540587 -1.4879767459396824e-16
  outer loop
    vertex 53.99294702540592 -31.081441133871667 8.999999999999998
    vertex 70.2769264620088 -29.137117732256648 0.9999999999999998
    vertex 71.26987348741467 -29.018558866128323 8.999999999999998
  endloop
endfacet
facet normal 0.11855886612832837 -0.99294702540587 -1.4879767459396824e-16
  outer loop
    vertex 53.99294702540592 -31.081441133871667 8.999999999999998
    vertex 71.26987348741467 -29.018558866128323 8.999999999999998
    vertex 54.985894050811794 -30.962882267743343 8.999999999999998
  endloop
endfacet
facet normal 0.9522822880420735 0.3052186820647672 -1.878760805028624e-17
  outer loop
    vertex 63.00000000000003 0.0 0.9999999999999998
    vertex 71.95760183075578 -27.947717711957928 8.999999999999998
    vertex 71.95760183075578 -27.947717711957928 0.9999999999999983
  endloop
endfacet
facet normal 0.9522822880420735 0.3052186820647672 -1.878760805028624e-17
  outer loop
    vertex 71.95760183075578 -27.947717711957928 8.999999999999998
    vertex 63.00000000000003 0.0 0.9999999999999998
    vertex 63.00000000000003 0.0 8.999999999999998
  endloop
endfacet
facet normal 0.0 1.0 0.0
  outer loop
    vertex 43.000000000000014 6.699999999999999 7.000000000000001
    vertex 64.99999999999999 6.699999999999986 3.000000000000002
    vertex 43.000000000000014 6.699999999999999 3.000000000000002
  endloop
endfacet
facet normal 0.0 1.0 0.0
  outer loop
    vertex 64.99999999999999 6.699999999999986 3.000000000000002
    vertex 43.000000000000014 6.699999999999999 7.000000000000001
    vertex 64.99999999999999 6.699999999999986 7.000000000000001
  endloop
endfacet
facet normal 0.0 -1.0 0.0
  outer loop
    vertex 60.87259077528878 -1.9999999999999996 0.9999999999999887
    vertex 46.40946050676257 -1.9999999999999996 -1.127986593019159e-14
    vertex 60.87259077528878 -1.9999999999999996 -1.127986593019159e-14
  endloop
endfacet
facet normal 0.0 -1.0 0.0
  outer loop
    vertex 46.40946050676257 -1.9999999999999996 -1.127986593019159e-14
    vertex 60.87259077528878 -1.9999999999999996 0.9999999999999887
    vertex 46.40946050676257 -1.9999999999999996 0.9999999999999887
  endloop
endfacet
facet normal 0.0 0.0 1.0
  outer loop
    vertex 64.99999999999999 6.699999999999986 3.000000000000002
    vertex 43.000000000000014 7.700000000000001 3.000000000000002
    vertex 43.000000000000014 6.699999999999999 3.000000000000002
  endloop
endfacet
facet normal 0.0 0.0 1.0
  outer loop
    vertex 43.000000000000014 7.700000000000001 3.000000000000002
    vertex 64.99999999999999 6.699999999999986 3.000000000000002
    vertex 64.99999999999999 7.699999999999989 3.000000000000002
  endloop
endfacet
facet normal 0.9522822880420737 0.305218682064767 -0.0
  outer loop
    vertex 46.40946050676257 -1.9999999999999996 -1.127986593019159e-14
    vertex 54.84677946402611 -28.32443514666226 0.9999999999999887
    vertex 54.84677946402611 -28.32443514666226 -1.127986593019159e-14
  endloop
endfacet
facet normal 0.9522822880420737 0.305218682064767 -0.0
  outer loop
    vertex 54.84677946402611 -28.32443514666226 0.9999999999999887
    vertex 46.40946050676257 -1.9999999999999996 -1.127986593019159e-14
    vertex 46.40946050676257 -1.9999999999999996 0.9999999999999887
  endloop
endfacet
facet normal 0.0 -0.0 -1.0
  outer loop
    vertex 64.99999999999999 7.699999999999989 7.000000000000001
    vertex 43.000000000000014 6.699999999999999 7.000000000000001
    vertex 43.000000000000014 7.700000000000001 7.000000000000001
  endloop
endfacet
facet normal 0.0 -0.0 -1.0
  outer loop
    vertex 43.000000000000014 6.699999999999999 7.000000000000001
    vertex 64.99999999999999 7.699999999999989 7.000000000000001
    vertex 64.99999999999999 6.699999999999986 7.000000000000001
  endloop
endfacet
facet normal -7.788903250473255e-17 1.0 1.3477258393190565e-16
  outer loop
    vertex 43.000000000000014 7.700000000000001 4.229949723821846e-15
    vertex 68.00000000000003 7.700000000000005 0.9242240000000008
    vertex 68.00000000000003 7.700000000000003 8.308829814650057e-16
  endloop
endfacet
facet normal -7.788903250473255e-17 1.0 1.3477258393190565e-16
  outer loop
    vertex 68.00000000000003 7.700000000000005 0.9242240000000008
    vertex 43.000000000000014 7.700000000000001 4.229949723821846e-15
    vertex 57.99999999999999 7.700000000000003 0.9242240000000042
  endloop
endfacet
facet normal -7.788903250473255e-17 1.0 1.3477258393190565e-16
  outer loop
    vertex 57.99999999999999 7.700000000000003 0.9242240000000042
    vertex 43.000000000000014 7.700000000000001 4.229949723821846e-15
    vertex 43.000000000000014 7.700000000000001 3.000000000000002
  endloop
endfacet
facet normal -7.788903250473255e-17 1.0 1.3477258393190565e-16
  outer loop
    vertex 57.99999999999999 7.700000000000003 0.9242240000000042
    vertex 43.000000000000014 7.700000000000001 3.000000000000002
    vertex 57.99999999999999 7.700000000000003 2.3500000000000036
  endloop
endfacet
facet normal -7.788903250473255e-17 1.0 1.3477258393190565e-16
  outer loop
    vertex 57.99999999999999 7.700000000000003 2.3500000000000036
    vertex 43.000000000000014 7.700000000000001 3.000000000000002
    vertex 65.0 7.69999999999999 2.3500000000000036
  endloop
endfacet
facet normal -7.788903250473255e-17 1.0 1.3477258393190565e-16
  outer loop
    vertex 65.0 7.69999999999999 2.3500000000000036
    vertex 43.000000000000014 7.700000000000001 3.000000000000002
    vertex 64.99999999999999 7.699999999999989 3.000000000000002
  endloop
endfacet
facet normal -0.7540048985888814 -0.2416682367272055 -0.6107970827215321
  outer loop
    vertex 43.00000000000004 0.0 0.9999999999999998
    vertex 53.34480786423593 -29.748380752197498 1.4723842109358203e-17
    vertex 52.69478131793528 -30.247717711957918 0.9999999999999983
  endloop
endfacet
facet normal -0.7540048985888814 -0.2416682367272055 -0.6107970827215321
  outer loop
    vertex 53.34480786423593 -29.748380752197498 1.4723842109358203e-17
    vertex 43.00000000000004 0.0 0.9999999999999998
    vertex 43.81007044365981 1.762479051592436e-16 1.4027625910663842e-15
  endloop
endfacet
facet normal 0.09387338917717358 -0.7862027159348008 -0.6107970827215319
  outer loop
    vertex 71.26987348741467 -29.018558866128323 0.9999999999999983
    vertex 54.17664390101902 -30.282612386161418 1.4723842109358203e-17
    vertex 70.81731174550622 -28.295700032550116 0.0
  endloop
endfacet
facet normal 0.09387338917717358 -0.7862027159348008 -0.6107970827215319
  outer loop
    vertex 54.17664390101902 -30.282612386161418 1.4723842109358203e-17
    vertex 71.26987348741467 -29.018558866128323 0.9999999999999983
    vertex 53.99294702540592 -31.081441133871667 0.9999999999999983
  endloop
endfacet
facet normal 0.09387338917717358 -0.7862027159348008 -0.6107970827215319
  outer loop
    vertex 53.99294702540592 -31.081441133871667 0.9999999999999983
    vertex 71.26987348741467 -29.018558866128323 0.9999999999999983
    vertex 70.2769264620088 -29.137117732256648 0.9999999999999998
  endloop
endfacet
facet normal -0.9522822880420735 -0.30521868206476727 2.8181412075429084e-17
  outer loop
    vertex 43.00000000000004 0.0 8.999999999999998
    vertex 52.69478131793528 -30.247717711957918 0.9999999999999983
    vertex 52.69478131793528 -30.247717711957918 8.999999999999998
  endloop
endfacet
facet normal -0.9522822880420735 -0.30521868206476727 2.8181412075429084e-17
  outer loop
    vertex 52.69478131793528 -30.247717711957918 0.9999999999999983
    vertex 43.00000000000004 0.0 8.999999999999998
    vertex 43.00000000000004 0.0 0.9999999999999998
  endloop
endfacet
facet normal 0.7540048985888839 0.2416682367272064 -0.6107970827215289
  outer loop
    vertex 71.1119978651936 -27.836853123622383 0.0
    vertex 63.00000000000003 0.0 0.9999999999999998
    vertex 71.95760183075578 -27.947717711957928 0.9999999999999983
  endloop
endfacet
facet normal 0.7540048985888839 0.2416682367272064 -0.6107970827215289
  outer loop
    vertex 63.00000000000003 0.0 0.9999999999999998
    vertex 71.1119978651936 -27.836853123622383 0.0
    vertex 62.189929556340275 1.762479051592436e-16 1.4027625910663842e-15
  endloop
endfacet
facet normal 0.6662237398561058 -0.42787013472666624 -0.6107970827215274
  outer loop
    vertex 70.81731174550622 -28.295700032550116 0.0
    vertex 71.95760183075578 -27.947717711957928 0.9999999999999983
    vertex 71.26987348741467 -29.018558866128323 0.9999999999999983
  endloop
endfacet
facet normal 0.6662237398561058 -0.42787013472666624 -0.6107970827215274
  outer loop
    vertex 71.95760183075578 -27.947717711957928 0.9999999999999983
    vertex 70.81731174550622 -28.295700032550116 0.0
    vertex 71.1119978651936 -27.836853123622383 0.0
  endloop
endfacet
facet normal -0.0 0.0 1.0
  outer loop
    vertex 54.965338330154445 -29.317382172068132 0.9999999999999887
    vertex 68.77681358483423 -26.66117516578173 0.9999999999999887
    vertex 54.84677946402611 -28.32443514666226 0.9999999999999887
  endloop
endfacet
facet normal -0.0 0.0 1.0
  outer loop
    vertex 68.77681358483423 -26.66117516578173 0.9999999999999887
    vertex 54.965338330154445 -29.317382172068132 0.9999999999999887
    vertex 68.89537245096255 -27.654122191187604 0.9999999999999887
  endloop
endfacet
facet normal 0.9929470254058699 0.1185588661283291 -0.0
  outer loop
    vertex 54.84677946402611 -28.32443514666226 0.9999999999999887
    vertex 54.965338330154445 -29.317382172068132 8.999999999999998
    vertex 54.965338330154445 -29.317382172068132 0.9999999999999887
  endloop
endfacet
facet normal 0.9929470254058699 0.1185588661283291 -0.0
  outer loop
    vertex 54.965338330154445 -29.317382172068132 8.999999999999998
    vertex 54.84677946402611 -28.32443514666226 0.9999999999999887
    vertex 54.84677946402611 -28.32443514666226 8.999999999999998
  endloop
endfacet
facet normal 0.0 -0.0 -1.0
  outer loop
    vertex 68.77681358483423 -26.66117516578173 8.999999999999998
    vertex 54.965338330154445 -29.317382172068132 8.999999999999998
    vertex 54.84677946402611 -28.32443514666226 8.999999999999998
  endloop
endfacet
facet normal 0.0 -0.0 -1.0
  outer loop
    vertex 54.965338330154445 -29.317382172068132 8.999999999999998
    vertex 68.77681358483423 -26.66117516578173 8.999999999999998
    vertex 68.89537245096255 -27.654122191187604 8.999999999999998
  endloop
endfacet
facet normal 0.9522822880420737 0.30521868206476693 0.0
  outer loop
    vertex 45.45717821872049 -2.3052186820647664 0.9999999999999887
    vertex 53.89449717598404 -28.629653828727026 8.999999999999998
    vertex 53.89449717598404 -28.629653828727026 0.9999999999999887
  endloop
endfacet
facet normal 0.9522822880420737 0.30521868206476693 0.0
  outer loop
    vertex 53.89449717598404 -28.629653828727026 8.999999999999998
    vertex 45.45717821872049 -2.3052186820647664 0.9999999999999887
    vertex 45.45717821872049 -2.3052186820647664 8.999999999999998
  endloop
endfacet
facet normal -0.30521868206476693 0.9522822880420736 -0.0
  outer loop
    vertex 53.89449717598404 -28.629653828727026 8.999999999999998
    vertex 54.84677946402611 -28.32443514666226 0.9999999999999887
    vertex 53.89449717598404 -28.629653828727026 0.9999999999999887
  endloop
endfacet
facet normal -0.30521868206476693 0.9522822880420736 -0.0
  outer loop
    vertex 54.84677946402611 -28.32443514666226 0.9999999999999887
    vertex 53.89449717598404 -28.629653828727026 8.999999999999998
    vertex 54.84677946402611 -28.32443514666226 8.999999999999998
  endloop
endfacet
facet normal 0.9522822880420737 0.305218682064767 -7.51504322011279e-17
  outer loop
    vertex 46.40946050676257 -1.9999999999999996 8.999999999999998
    vertex 54.84677946402611 -28.32443514666226 9.999999999999998
    vertex 54.84677946402611 -28.32443514666226 8.999999999999998
  endloop
endfacet
facet normal 0.9522822880420737 0.305218682064767 -7.51504322011279e-17
  outer loop
    vertex 54.84677946402611 -28.32443514666226 9.999999999999998
    vertex 46.40946050676257 -1.9999999999999996 8.999999999999998
    vertex 46.40946050676257 -1.9999999999999996 9.999999999999998
  endloop
endfacet
facet normal -0.11855886612832907 0.9929470254058698 0.0
  outer loop
    vertex 54.965338330154445 -29.317382172068132 8.999999999999998
    vertex 68.89537245096255 -27.654122191187604 0.9999999999999887
    vertex 54.965338330154445 -29.317382172068132 0.9999999999999887
  endloop
endfacet
facet normal -0.11855886612832907 0.9929470254058698 0.0
  outer loop
    vertex 68.89537245096255 -27.654122191187604 0.9999999999999887
    vertex 54.965338330154445 -29.317382172068132 8.999999999999998
    vertex 68.89537245096255 -27.654122191187604 8.999999999999998
  endloop
endfacet
facet normal -0.9522822880420733 -0.3052186820647679 0.0
  outer loop
    vertex 60.87259077528878 -1.9999999999999996 0.9999999999999887
    vertex 68.77681358483423 -26.66117516578173 -1.127986593019159e-14
    vertex 68.77681358483423 -26.66117516578173 0.9999999999999887
  endloop
endfacet
facet normal -0.9522822880420733 -0.3052186820647679 0.0
  outer loop
    vertex 68.77681358483423 -26.66117516578173 -1.127986593019159e-14
    vertex 60.87259077528878 -1.9999999999999996 0.9999999999999887
    vertex 60.87259077528878 -1.9999999999999996 -1.127986593019159e-14
  endloop
endfacet
facet normal -0.11855886612832907 0.9929470254058698 -0.0
  outer loop
    vertex 54.84677946402611 -28.32443514666226 0.9999999999999887
    vertex 68.77681358483423 -26.66117516578173 -1.127986593019159e-14
    vertex 54.84677946402611 -28.32443514666226 -1.127986593019159e-14
  endloop
endfacet
facet normal -0.11855886612832907 0.9929470254058698 -0.0
  outer loop
    vertex 68.77681358483423 -26.66117516578173 -1.127986593019159e-14
    vertex 54.84677946402611 -28.32443514666226 0.9999999999999887
    vertex 68.77681358483423 -26.66117516578173 0.9999999999999887
  endloop
endfacet
facet normal -0.9929470254058699 -0.1185588661283291 -0.0
  outer loop
    vertex 68.77681358483423 -26.66117516578173 8.999999999999998
    vertex 68.89537245096255 -27.654122191187604 0.9999999999999887
    vertex 68.89537245096255 -27.654122191187604 8.999999999999998
  endloop
endfacet
facet normal -0.9929470254058699 -0.1185588661283291 -0.0
  outer loop
    vertex 68.89537245096255 -27.654122191187604 0.9999999999999887
    vertex 68.77681358483423 -26.66117516578173 8.999999999999998
    vertex 68.77681358483423 -26.66117516578173 0.9999999999999887
  endloop
endfacet
facet normal -0.9522822880420733 -0.3052186820647678 -3.4159287364155033e-16
  outer loop
    vertex 60.87259077528878 -1.9999999999999996 9.999999999999998
    vertex 68.77681358483423 -26.66117516578173 8.999999999999998
    vertex 68.77681358483423 -26.66117516578173 9.999999999999998
  endloop
endfacet
facet normal -0.9522822880420733 -0.3052186820647678 -3.4159287364155033e-16
  outer loop
    vertex 68.77681358483423 -26.66117516578173 8.999999999999998
    vertex 60.87259077528878 -1.9999999999999996 9.999999999999998
    vertex 60.87259077528878 -1.9999999999999996 8.999999999999998
  endloop
endfacet
facet normal -0.11855886612832907 0.9929470254058698 7.896124220806526e-30
  outer loop
    vertex 54.84677946402611 -28.32443514666226 9.999999999999998
    vertex 68.77681358483423 -26.66117516578173 8.999999999999998
    vertex 54.84677946402611 -28.32443514666226 8.999999999999998
  endloop
endfacet
facet normal -0.11855886612832907 0.9929470254058698 7.896124220806526e-30
  outer loop
    vertex 68.77681358483423 -26.66117516578173 8.999999999999998
    vertex 54.84677946402611 -28.32443514666226 9.999999999999998
    vertex 68.77681358483423 -26.66117516578173 9.999999999999998
  endloop
endfacet
facet normal 0.0 -0.0 1.0
  outer loop
    vertex 53.89449717598404 -28.629653828727026 0.9999999999999887
    vertex 46.40946050676257 -1.9999999999999996 0.9999999999999887
    vertex 45.45717821872049 -2.3052186820647664 0.9999999999999887
  endloop
endfacet
facet normal 0.0 -0.0 1.0
  outer loop
    vertex 46.40946050676257 -1.9999999999999996 0.9999999999999887
    vertex 53.89449717598404 -28.629653828727026 0.9999999999999887
    vertex 54.84677946402611 -28.32443514666226 0.9999999999999887
  endloop
endfacet
endsolid myGun_XIIII
