solid myGun_XIIII
facet normal -0.6733652634783945 -0.21582219983281853 -0.7071067811865441
  outer loop
    vertex 8.906794259402144 -14.672334237514306 -3.003344629286228e-14
    vertex 13.616407325529144 -31.823581569397597 0.7499999999999699
    vertex 8.07623259240411 -14.538236402047472 0.7499999999999699
  endloop
endfacet
facet normal -0.6733652634783945 -0.21582219983281853 -0.7071067811865441
  outer loop
    vertex 13.616407325529144 -31.823581569397597 0.7499999999999699
    vertex 8.906794259402144 -14.672334237514306 -3.003344629286228e-14
    vertex 14.3306190415607 -31.594667557849014 -3.0025470314084446e-14
  endloop
endfacet
facet normal -0.6733652634783945 -0.21582219983281853 -0.7071067811865441
  outer loop
    vertex 13.616407325529144 -31.823581569397597 0.7499999999999699
    vertex 14.3306190415607 -31.594667557849014 -3.0025470314084446e-14
    vertex 16.55225748258461 -40.98343405941066 0.7499999999999699
  endloop
endfacet
facet normal -0.6733652634783945 -0.21582219983281853 -0.7071067811865441
  outer loop
    vertex 16.55225748258461 -40.98343405941066 0.7499999999999699
    vertex 14.3306190415607 -31.594667557849014 -3.0025470314084446e-14
    vertex 17.18423825151373 -40.497959492902496 -3.003344629286228e-14
  endloop
endfacet
facet normal -0.5712308382048286 0.4167677164606305 -0.707106781186548
  outer loop
    vertex 8.80582856059515 -13.538236402047472 0.7499999999999699
    vertex 8.906794259402144 -14.672334237514306 -3.003344629286228e-14
    vertex 8.07623259240411 -14.538236402047472 0.7499999999999699
  endloop
endfacet
facet normal -0.5712308382048286 0.4167677164606305 -0.707106781186548
  outer loop
    vertex 8.906794259402144 -14.672334237514306 -3.003344629286228e-14
    vertex 8.80582856059515 -13.538236402047472 0.7499999999999699
    vertex 9.187030491549647 -14.288236402047474 -3.003344629286228e-14
  endloop
endfacet
facet normal -2.924643313921335e-16 1.0 1.87997765503193e-15
  outer loop
    vertex 8.80582856059515 -13.538236402047472 1.49999999999997
    vertex 23.268958829121363 -13.538236402047467 0.7499999999999699
    vertex 8.80582856059515 -13.538236402047472 0.7499999999999699
  endloop
endfacet
facet normal -2.924643313921335e-16 1.0 1.87997765503193e-15
  outer loop
    vertex 23.268958829121363 -13.538236402047467 0.7499999999999699
    vertex 8.80582856059515 -13.538236402047472 1.49999999999997
    vertex 23.26895882912136 -13.538236402047469 1.49999999999997
  endloop
endfacet
facet normal 0.5949721612728804 -0.38211009841442 -0.7071067811865475
  outer loop
    vertex 31.68296866897991 -38.970862247217106 -3.003344629286228e-14
    vertex 31.80458621753263 -40.16939385389057 0.7499999999999699
    vertex 31.364588313959416 -39.466602738555615 -3.003344629286228e-14
  endloop
endfacet
facet normal 0.5949721612728804 -0.38211009841442 -0.7071067811865475
  outer loop
    vertex 31.80458621753263 -40.16939385389057 0.7499999999999699
    vertex 31.68296866897991 -38.970862247217106 -3.003344629286228e-14
    vertex 32.505097314966505 -39.078649057128246 0.7499999999999699
  endloop
endfacet
facet normal -2.1204093106355876e-16 0.7071067811865464 -0.7071067811865488
  outer loop
    vertex 23.268958829121363 -13.538236402047467 0.7499999999999699
    vertex 9.187030491549647 -14.288236402047474 -3.003344629286228e-14
    vertex 8.80582856059515 -13.538236402047472 0.7499999999999699
  endloop
endfacet
facet normal -2.1204093106355876e-16 0.7071067811865464 -0.7071067811865488
  outer loop
    vertex 9.187030491549647 -14.288236402047474 -3.003344629286228e-14
    vertex 23.268958829121363 -13.538236402047467 0.7499999999999699
    vertex 23.024441431992503 -14.28823640204747 -3.003344629286228e-14
  endloop
endfacet
facet normal -0.9522822880420737 -0.30521868206476677 8.066325072910567e-16
  outer loop
    vertex 8.076232592404113 -14.538236402047472 1.49999999999997
    vertex 16.55225748258461 -40.98343405941066 0.7499999999999699
    vertex 16.55225748258461 -40.98343405941066 1.49999999999997
  endloop
endfacet
facet normal -0.9522822880420737 -0.30521868206476677 8.066325072910567e-16
  outer loop
    vertex 16.55225748258461 -40.98343405941066 0.7499999999999699
    vertex 8.076232592404113 -14.538236402047472 1.49999999999997
    vertex 13.616407325529144 -31.823581569397597 0.7499999999999699
  endloop
endfacet
facet normal -0.9522822880420737 -0.30521868206476677 8.066325072910567e-16
  outer loop
    vertex 13.616407325529144 -31.823581569397597 0.7499999999999699
    vertex 8.076232592404113 -14.538236402047472 1.49999999999997
    vertex 8.07623259240411 -14.538236402047472 0.7499999999999699
  endloop
endfacet
facet normal -0.38211009841442484 -0.5949721612728777 -0.7071067811865471
  outer loop
    vertex 17.18423825151373 -40.497959492902496 -3.003344629286228e-14
    vertex 17.87455209672451 -41.832653834771094 0.7499999999999699
    vertex 16.55225748258461 -40.98343405941066 0.7499999999999699
  endloop
endfacet
facet normal -0.38211009841442484 -0.5949721612728777 -0.7071067811865471
  outer loop
    vertex 17.87455209672451 -41.832653834771094 0.7499999999999699
    vertex 17.18423825151373 -40.497959492902496 -3.003344629286228e-14
    vertex 18.053149253041497 -41.056001851719465 -3.003344629286228e-14
  endloop
endfacet
facet normal 0.08383377820912938 -0.7021195750235026 -0.7071067811865466
  outer loop
    vertex 18.053149253041497 -41.056001851719465 -3.003344629286228e-14
    vertex 31.80458621753263 -40.16939385389057 0.7499999999999699
    vertex 17.87455209672451 -41.832653834771094 0.7499999999999699
  endloop
endfacet
facet normal 0.08383377820912938 -0.7021195750235026 -0.7071067811865466
  outer loop
    vertex 31.80458621753263 -40.16939385389057 0.7499999999999699
    vertex 18.053149253041497 -41.056001851719465 -3.003344629286228e-14
    vertex 31.364588313959416 -39.466602738555615 -3.003344629286228e-14
  endloop
endfacet
facet normal 0.6733652634783862 0.2158221998328163 -0.7071067811865529
  outer loop
    vertex 24.63958043833804 -14.538236402047467 0.7499999999999699
    vertex 31.68296866897991 -38.970862247217106 -3.003344629286228e-14
    vertex 24.000000000000057 -15.0 -3.003344629286228e-14
  endloop
endfacet
facet normal 0.6733652634783862 0.2158221998328163 -0.7071067811865529
  outer loop
    vertex 31.68296866897991 -38.970862247217106 -3.003344629286228e-14
    vertex 24.63958043833804 -14.538236402047467 0.7499999999999699
    vertex 32.505097314966505 -39.078649057128246 0.7499999999999699
  endloop
endfacet
facet normal 0.4167677164606287 0.5712308382048269 -0.7071067811865503
  outer loop
    vertex 23.268958829121363 -13.538236402047467 0.7499999999999699
    vertex 24.000000000000057 -15.0 -3.003344629286228e-14
    vertex 23.024441431992503 -14.28823640204747 -3.003344629286228e-14
  endloop
endfacet
facet normal 0.4167677164606287 0.5712308382048269 -0.7071067811865503
  outer loop
    vertex 24.000000000000057 -15.0 -3.003344629286228e-14
    vertex 23.268958829121363 -13.538236402047467 0.7499999999999699
    vertex 24.63958043833804 -14.538236402047467 0.7499999999999699
  endloop
endfacet
facet normal -0.8078423986350207 0.589398556977888 1.506860614016382e-15
  outer loop
    vertex 8.80582856059515 -13.538236402047472 1.49999999999997
    vertex 8.07623259240411 -14.538236402047472 0.7499999999999699
    vertex 8.076232592404113 -14.538236402047472 1.49999999999997
  endloop
endfacet
facet normal -0.8078423986350207 0.589398556977888 1.506860614016382e-15
  outer loop
    vertex 8.07623259240411 -14.538236402047472 0.7499999999999699
    vertex 8.80582856059515 -13.538236402047472 1.49999999999997
    vertex 8.80582856059515 -13.538236402047472 0.7499999999999699
  endloop
endfacet
facet normal 0.9522822880420735 0.30521868206476743 1.0809516712568633e-15
  outer loop
    vertex 24.63958043833804 -14.538236402047467 0.7499999999999699
    vertex 32.505097314966505 -39.078649057128246 1.49999999999997
    vertex 32.505097314966505 -39.078649057128246 0.7499999999999699
  endloop
endfacet
facet normal 0.9522822880420735 0.30521868206476743 1.0809516712568633e-15
  outer loop
    vertex 32.505097314966505 -39.078649057128246 1.49999999999997
    vertex 24.63958043833804 -14.538236402047467 0.7499999999999699
    vertex 24.63958043833804 -14.53823640204747 1.49999999999997
  endloop
endfacet
facet normal -0.5403852834973994 -0.8414176997065341 0.0
  outer loop
    vertex 17.87455209672451 -41.832653834771094 1.49999999999997
    vertex 16.55225748258461 -40.98343405941066 0.7499999999999699
    vertex 17.87455209672451 -41.832653834771094 0.7499999999999699
  endloop
endfacet
facet normal -0.5403852834973994 -0.8414176997065341 0.0
  outer loop
    vertex 16.55225748258461 -40.98343405941066 0.7499999999999699
    vertex 17.87455209672451 -41.832653834771094 1.49999999999997
    vertex 16.55225748258461 -40.98343405941066 1.49999999999997
  endloop
endfacet
facet normal 0.5893985569778879 0.8078423986350207 5.212520085257214e-15
  outer loop
    vertex 23.26895882912136 -13.538236402047469 1.49999999999997
    vertex 24.63958043833804 -14.538236402047467 0.7499999999999699
    vertex 23.268958829121363 -13.538236402047467 0.7499999999999699
  endloop
endfacet
facet normal 0.5893985569778879 0.8078423986350207 5.212520085257214e-15
  outer loop
    vertex 24.63958043833804 -14.538236402047467 0.7499999999999699
    vertex 23.26895882912136 -13.538236402047469 1.49999999999997
    vertex 24.63958043833804 -14.53823640204747 1.49999999999997
  endloop
endfacet
facet normal 0.11855886612832868 -0.99294702540587 3.404632418697317e-30
  outer loop
    vertex 31.80458621753263 -40.16939385389057 1.49999999999997
    vertex 17.87455209672451 -41.832653834771094 0.7499999999999699
    vertex 31.80458621753263 -40.16939385389057 0.7499999999999699
  endloop
endfacet
facet normal 0.11855886612832868 -0.99294702540587 3.404632418697317e-30
  outer loop
    vertex 17.87455209672451 -41.832653834771094 0.7499999999999699
    vertex 31.80458621753263 -40.16939385389057 1.49999999999997
    vertex 17.87455209672451 -41.832653834771094 1.49999999999997
  endloop
endfacet
facet normal -0.0 -0.0 1.0
  outer loop
    vertex 16.55225748258461 -40.98343405941066 1.49999999999997
    vertex 8.80582856059515 -13.538236402047472 1.49999999999997
    vertex 8.076232592404113 -14.538236402047472 1.49999999999997
  endloop
endfacet
facet normal -0.0 -0.0 1.0
  outer loop
    vertex 8.80582856059515 -13.538236402047472 1.49999999999997
    vertex 16.55225748258461 -40.98343405941066 1.49999999999997
    vertex 10.041491343976945 -16.738236402047473 1.4999999999999707
  endloop
endfacet
facet normal -0.0 -0.0 1.0
  outer loop
    vertex 10.041491343976945 -16.738236402047473 1.4999999999999707
    vertex 16.55225748258461 -40.98343405941066 1.49999999999997
    vertex 17.081979041152273 -38.70455801723452 1.499999999999971
  endloop
endfacet
facet normal -0.0 -0.0 1.0
  outer loop
    vertex 17.081979041152273 -38.70455801723452 1.499999999999971
    vertex 16.55225748258461 -40.98343405941066 1.49999999999997
    vertex 17.87455209672451 -41.832653834771094 1.49999999999997
  endloop
endfacet
facet normal -0.0 -0.0 1.0
  outer loop
    vertex 17.081979041152273 -38.70455801723452 1.499999999999971
    vertex 17.87455209672451 -41.832653834771094 1.49999999999997
    vertex 18.093381896939164 -38.583795506533576 1.499999999999971
  endloop
endfacet
facet normal -0.0 -0.0 1.0
  outer loop
    vertex 18.093381896939164 -38.583795506533576 1.499999999999971
    vertex 17.87455209672451 -41.832653834771094 1.49999999999997
    vertex 19.726568269432068 -40.40299756795537 1.499999999999971
  endloop
endfacet
facet normal -0.0 -0.0 1.0
  outer loop
    vertex 19.726568269432068 -40.40299756795537 1.499999999999971
    vertex 17.87455209672451 -41.832653834771094 1.49999999999997
    vertex 31.80458621753263 -40.16939385389057 1.49999999999997
  endloop
endfacet
facet normal -0.0 -0.0 1.0
  outer loop
    vertex 18.093381896939164 -38.583795506533576 1.499999999999971
    vertex 19.726568269432068 -40.40299756795537 1.499999999999971
    vertex 19.415676511079056 -39.433015281894 1.499999999999971
  endloop
endfacet
facet normal -0.0 -0.0 1.0
  outer loop
    vertex 19.726568269432068 -40.40299756795537 1.499999999999971
    vertex 31.80458621753263 -40.16939385389057 1.49999999999997
    vertex 29.206429824777853 -39.271092634159 1.499999999999972
  endloop
endfacet
facet normal -0.0 -0.0 1.0
  outer loop
    vertex 29.206429824777853 -39.271092634159 1.499999999999972
    vertex 31.80458621753263 -40.16939385389057 1.49999999999997
    vertex 29.596049163858734 -37.21036555133531 1.4999999999999718
  endloop
endfacet
facet normal -0.0 -0.0 1.0
  outer loop
    vertex 29.596049163858734 -37.21036555133531 1.4999999999999718
    vertex 31.80458621753263 -40.16939385389057 1.49999999999997
    vertex 30.60745201964562 -37.089603040634366 1.4999999999999718
  endloop
endfacet
facet normal -0.0 -0.0 1.0
  outer loop
    vertex 8.80582856059515 -13.538236402047472 1.49999999999997
    vertex 11.50068328035902 -14.738236402047473 1.499999999999971
    vertex 23.26895882912136 -13.538236402047469 1.49999999999997
  endloop
endfacet
facet normal -0.0 -0.0 1.0
  outer loop
    vertex 11.50068328035902 -14.738236402047473 1.499999999999971
    vertex 8.80582856059515 -13.538236402047472 1.49999999999997
    vertex 10.041491343976945 -16.738236402047473 1.4999999999999707
  endloop
endfacet
facet normal -0.0 -0.0 1.0
  outer loop
    vertex 11.50068328035902 -14.738236402047473 1.499999999999971
    vertex 10.041491343976945 -16.738236402047473 1.4999999999999707
    vertex 11.091600132680801 -16.73823640204747 1.4999999999999707
  endloop
endfacet
facet normal -0.0 -0.0 1.0
  outer loop
    vertex 23.26895882912136 -13.538236402047469 1.49999999999997
    vertex 11.50068328035902 -14.738236402047473 1.499999999999971
    vertex 21.343334878588255 -14.738236402047466 1.4999999999999707
  endloop
endfacet
facet normal -0.0 -0.0 1.0
  outer loop
    vertex 23.26895882912136 -13.538236402047469 1.49999999999997
    vertex 21.343334878588255 -14.738236402047466 1.4999999999999707
    vertex 21.663847699101073 -15.738236402047468 1.4999999999999702
  endloop
endfacet
facet normal -0.0 -0.0 1.0
  outer loop
    vertex 23.26895882912136 -13.538236402047469 1.49999999999997
    vertex 21.663847699101073 -15.738236402047468 1.4999999999999702
    vertex 23.034469308317757 -16.738236402047463 1.49999999999997
  endloop
endfacet
facet normal -0.0 -0.0 1.0
  outer loop
    vertex 23.26895882912136 -13.538236402047469 1.49999999999997
    vertex 23.034469308317757 -16.738236402047463 1.49999999999997
    vertex 24.08457809702162 -16.73823640204746 1.4999999999999702
  endloop
endfacet
facet normal -0.0 -0.0 1.0
  outer loop
    vertex 23.26895882912136 -13.538236402047469 1.49999999999997
    vertex 24.08457809702162 -16.73823640204746 1.4999999999999702
    vertex 24.63958043833804 -14.53823640204747 1.49999999999997
  endloop
endfacet
facet normal -0.0 -0.0 1.0
  outer loop
    vertex 24.63958043833804 -14.53823640204747 1.49999999999997
    vertex 24.08457809702162 -16.73823640204746 1.4999999999999702
    vertex 30.60745201964562 -37.089603040634366 1.4999999999999718
  endloop
endfacet
facet normal -0.0 -0.0 1.0
  outer loop
    vertex 24.63958043833804 -14.53823640204747 1.49999999999997
    vertex 30.60745201964562 -37.089603040634366 1.4999999999999718
    vertex 32.505097314966505 -39.078649057128246 1.49999999999997
  endloop
endfacet
facet normal -0.0 -0.0 1.0
  outer loop
    vertex 32.505097314966505 -39.078649057128246 1.49999999999997
    vertex 30.60745201964562 -37.089603040634366 1.4999999999999718
    vertex 31.80458621753263 -40.16939385389057 1.49999999999997
  endloop
endfacet
facet normal -0.0 -0.0 1.0
  outer loop
    vertex 18.093381896939164 -38.583795506533576 1.499999999999971
    vertex 11.50068328035902 -14.738236402047473 1.499999999999971
    vertex 11.091600132680801 -16.73823640204747 1.4999999999999707
  endloop
endfacet
facet normal -0.0 -0.0 1.0
  outer loop
    vertex 11.50068328035902 -14.738236402047473 1.499999999999971
    vertex 18.093381896939164 -38.583795506533576 1.499999999999971
    vertex 11.821196100871841 -15.738236402047473 1.499999999999971
  endloop
endfacet
facet normal -0.0 -0.0 1.0
  outer loop
    vertex 11.821196100871841 -15.738236402047473 1.499999999999971
    vertex 18.093381896939164 -38.583795506533576 1.499999999999971
    vertex 21.663847699101073 -15.738236402047468 1.4999999999999702
  endloop
endfacet
facet normal -0.0 -0.0 1.0
  outer loop
    vertex 21.663847699101073 -15.738236402047468 1.4999999999999702
    vertex 18.093381896939164 -38.583795506533576 1.499999999999971
    vertex 19.415676511079056 -39.433015281894 1.499999999999971
  endloop
endfacet
facet normal -0.0 -0.0 1.0
  outer loop
    vertex 21.663847699101073 -15.738236402047468 1.4999999999999702
    vertex 19.415676511079056 -39.433015281894 1.499999999999971
    vertex 28.89553806642486 -38.30111034809763 1.4999999999999718
  endloop
endfacet
facet normal -0.0 -0.0 1.0
  outer loop
    vertex 21.663847699101073 -15.738236402047468 1.4999999999999702
    vertex 28.89553806642486 -38.30111034809763 1.4999999999999718
    vertex 23.034469308317757 -16.738236402047463 1.49999999999997
  endloop
endfacet
facet normal -0.0 -0.0 1.0
  outer loop
    vertex 23.034469308317757 -16.738236402047463 1.49999999999997
    vertex 28.89553806642486 -38.30111034809763 1.4999999999999718
    vertex 29.596049163858734 -37.21036555133531 1.4999999999999718
  endloop
endfacet
facet normal -0.0 -0.0 1.0
  outer loop
    vertex 29.596049163858734 -37.21036555133531 1.4999999999999718
    vertex 28.89553806642486 -38.30111034809763 1.4999999999999718
    vertex 29.206429824777853 -39.271092634159 1.499999999999972
  endloop
endfacet
facet normal 0.8414176997065398 -0.5403852834973907 -0.0
  outer loop
    vertex 32.505097314966505 -39.078649057128246 0.7499999999999699
    vertex 31.80458621753263 -40.16939385389057 1.49999999999997
    vertex 31.80458621753263 -40.16939385389057 0.7499999999999699
  endloop
endfacet
facet normal 0.8414176997065398 -0.5403852834973907 -0.0
  outer loop
    vertex 31.80458621753263 -40.16939385389057 1.49999999999997
    vertex 32.505097314966505 -39.078649057128246 0.7499999999999699
    vertex 32.505097314966505 -39.078649057128246 1.49999999999997
  endloop
endfacet
facet normal -1.120888641479275e-19 -5.567937160865718e-20 -1.0
  outer loop
    vertex 9.187030491549647 -14.288236402047474 -3.003344629286228e-14
    vertex 14.3306190415607 -31.594667557849014 -3.0025470314084446e-14
    vertex 8.906794259402144 -14.672334237514306 -3.003344629286228e-14
  endloop
endfacet
facet normal -1.120888641479275e-19 -5.567937160865718e-20 -1.0
  outer loop
    vertex 14.3306190415607 -31.594667557849014 -3.0025470314084446e-14
    vertex 9.187030491549647 -14.288236402047474 -3.003344629286228e-14
    vertex 23.024441431992503 -14.28823640204747 -3.003344629286228e-14
  endloop
endfacet
facet normal -1.120888641479275e-19 -5.567937160865718e-20 -1.0
  outer loop
    vertex 14.3306190415607 -31.594667557849014 -3.0025470314084446e-14
    vertex 23.024441431992503 -14.28823640204747 -3.003344629286228e-14
    vertex 17.18423825151373 -40.497959492902496 -3.003344629286228e-14
  endloop
endfacet
facet normal -1.120888641479275e-19 -5.567937160865718e-20 -1.0
  outer loop
    vertex 17.18423825151373 -40.497959492902496 -3.003344629286228e-14
    vertex 23.024441431992503 -14.28823640204747 -3.003344629286228e-14
    vertex 18.053149253041497 -41.056001851719465 -3.003344629286228e-14
  endloop
endfacet
facet normal -1.120888641479275e-19 -5.567937160865718e-20 -1.0
  outer loop
    vertex 18.053149253041497 -41.056001851719465 -3.003344629286228e-14
    vertex 23.024441431992503 -14.28823640204747 -3.003344629286228e-14
    vertex 31.364588313959416 -39.466602738555615 -3.003344629286228e-14
  endloop
endfacet
facet normal -1.120888641479275e-19 -5.567937160865718e-20 -1.0
  outer loop
    vertex 31.364588313959416 -39.466602738555615 -3.003344629286228e-14
    vertex 23.024441431992503 -14.28823640204747 -3.003344629286228e-14
    vertex 24.000000000000057 -15.0 -3.003344629286228e-14
  endloop
endfacet
facet normal -1.120888641479275e-19 -5.567937160865718e-20 -1.0
  outer loop
    vertex 31.364588313959416 -39.466602738555615 -3.003344629286228e-14
    vertex 24.000000000000057 -15.0 -3.003344629286228e-14
    vertex 31.68296866897991 -38.970862247217106 -3.003344629286228e-14
  endloop
endfacet
facet normal -0.0 -0.0 1.0
  outer loop
    vertex 19.57112239025556 -39.91800642492469 3.9999999999999702
    vertex 28.89553806642486 -38.30111034809763 3.9999999999999702
    vertex 19.415676511079056 -39.433015281894 3.9999999999999702
  endloop
endfacet
facet normal -0.0 -0.0 1.0
  outer loop
    vertex 28.89553806642486 -38.30111034809763 3.9999999999999702
    vertex 19.57112239025556 -39.91800642492469 3.9999999999999702
    vertex 29.05098394560137 -38.7861014911283 3.9999999999999702
  endloop
endfacet
facet normal 5.703184276421944e-16 1.7478379781941257e-16 -1.0
  outer loop
    vertex 10.041491343976947 -16.73823640204747 2.749999999999971
    vertex 16.784094933530525 -38.74012567707302 2.749999999999971
    vertex 9.732207345381319 -16.73823640204747 2.749999999999971
  endloop
endfacet
facet normal 5.703184276421944e-16 1.7478379781941257e-16 -1.0
  outer loop
    vertex 16.784094933530525 -38.74012567707302 2.749999999999971
    vertex 10.041491343976947 -16.73823640204747 2.749999999999971
    vertex 17.081979041152273 -38.70455801723452 2.7499999999999716
  endloop
endfacet
facet normal -7.162618869531097e-17 -2.2957111761319218e-17 -1.0
  outer loop
    vertex 29.206429824777853 -39.271092634159 2.7499999999999707
    vertex 19.818133874051494 -40.68868225436799 2.749999999999971
    vertex 19.726568269432068 -40.40299756795538 2.749999999999971
  endloop
endfacet
facet normal -7.162618869531097e-17 -2.2957111761319218e-17 -1.0
  outer loop
    vertex 19.818133874051494 -40.68868225436799 2.749999999999971
    vertex 29.206429824777853 -39.271092634159 2.7499999999999707
    vertex 29.297995429397286 -39.55677732057162 2.7499999999999707
  endloop
endfacet
facet normal -0.9522822880420737 -0.3052186820647668 7.826575920875552e-16
  outer loop
    vertex 10.041491343976947 -16.73823640204747 2.749999999999971
    vertex 17.081979041152273 -38.70455801723452 1.499999999999971
    vertex 17.081979041152273 -38.70455801723452 2.7499999999999716
  endloop
endfacet
facet normal -0.9522822880420737 -0.3052186820647668 7.826575920875552e-16
  outer loop
    vertex 17.081979041152273 -38.70455801723452 1.499999999999971
    vertex 10.041491343976947 -16.73823640204747 2.749999999999971
    vertex 10.041491343976945 -16.738236402047473 1.4999999999999707
  endloop
endfacet
facet normal 0.11855886612833014 -0.9929470254058697 -4.483600809996874e-15
  outer loop
    vertex 29.206429824777853 -39.271092634159 1.499999999999972
    vertex 19.726568269432068 -40.40299756795538 2.749999999999971
    vertex 19.726568269432068 -40.40299756795537 1.499999999999971
  endloop
endfacet
facet normal 0.11855886612833014 -0.9929470254058697 -4.483600809996874e-15
  outer loop
    vertex 19.726568269432068 -40.40299756795538 2.749999999999971
    vertex 29.206429824777853 -39.271092634159 1.499999999999972
    vertex 29.206429824777853 -39.271092634159 2.7499999999999707
  endloop
endfacet
facet normal 0.10005721257444765 -0.8379930986237749 0.5364290455137161
  outer loop
    vertex 29.05098394560137 -38.7861014911283 3.9999999999999702
    vertex 19.818133874051494 -40.68868225436799 2.749999999999971
    vertex 29.297995429397286 -39.55677732057162 2.7499999999999707
  endloop
endfacet
facet normal 0.10005721257444765 -0.8379930986237749 0.5364290455137161
  outer loop
    vertex 19.818133874051494 -40.68868225436799 2.749999999999971
    vertex 29.05098394560137 -38.7861014911283 3.9999999999999702
    vertex 19.57112239025556 -39.91800642492469 3.9999999999999702
  endloop
endfacet
facet normal -0.9522822880420725 -0.3052186820647705 -1.1898241969227774e-15
  outer loop
    vertex 19.57112239025556 -39.91800642492469 3.9999999999999702
    vertex 19.726568269432068 -40.40299756795538 2.749999999999971
    vertex 19.818133874051494 -40.68868225436799 2.749999999999971
  endloop
endfacet
facet normal -0.9522822880420725 -0.3052186820647705 -1.1898241969227774e-15
  outer loop
    vertex 19.726568269432068 -40.40299756795538 2.749999999999971
    vertex 19.57112239025556 -39.91800642492469 3.9999999999999702
    vertex 19.726568269432068 -40.40299756795537 1.499999999999971
  endloop
endfacet
facet normal -0.9522822880420725 -0.3052186820647705 -1.1898241969227774e-15
  outer loop
    vertex 19.726568269432068 -40.40299756795537 1.499999999999971
    vertex 19.57112239025556 -39.91800642492469 3.9999999999999702
    vertex 19.415676511079056 -39.433015281894 1.499999999999971
  endloop
endfacet
facet normal -0.9522822880420725 -0.3052186820647705 -1.1898241969227774e-15
  outer loop
    vertex 19.415676511079056 -39.433015281894 1.499999999999971
    vertex 19.57112239025556 -39.91800642492469 3.9999999999999702
    vertex 19.415676511079056 -39.433015281894 3.9999999999999702
  endloop
endfacet
facet normal 0.9522822880420749 0.3052186820647632 -3.008694793038423e-15
  outer loop
    vertex 28.89553806642486 -38.30111034809763 1.4999999999999718
    vertex 29.206429824777853 -39.271092634159 2.7499999999999707
    vertex 29.206429824777853 -39.271092634159 1.499999999999972
  endloop
endfacet
facet normal 0.9522822880420749 0.3052186820647632 -3.008694793038423e-15
  outer loop
    vertex 29.206429824777853 -39.271092634159 2.7499999999999707
    vertex 28.89553806642486 -38.30111034809763 1.4999999999999718
    vertex 29.05098394560137 -38.7861014911283 3.9999999999999702
  endloop
endfacet
facet normal 0.9522822880420749 0.3052186820647632 -3.008694793038423e-15
  outer loop
    vertex 29.05098394560137 -38.7861014911283 3.9999999999999702
    vertex 28.89553806642486 -38.30111034809763 1.4999999999999718
    vertex 28.89553806642486 -38.30111034809763 3.9999999999999702
  endloop
endfacet
facet normal 0.9522822880420749 0.3052186820647632 -3.008694793038423e-15
  outer loop
    vertex 29.05098394560137 -38.7861014911283 3.9999999999999702
    vertex 29.297995429397286 -39.55677732057162 2.7499999999999707
    vertex 29.206429824777853 -39.271092634159 2.7499999999999707
  endloop
endfacet
facet normal 0.11855886612832525 -0.9929470254058702 -2.298561457792386e-15
  outer loop
    vertex 18.093381896939164 -38.583795506533576 3.9999999999999707
    vertex 17.081979041152273 -38.70455801723452 1.499999999999971
    vertex 18.093381896939164 -38.583795506533576 1.499999999999971
  endloop
endfacet
facet normal 0.11855886612832525 -0.9929470254058702 -2.298561457792386e-15
  outer loop
    vertex 17.081979041152273 -38.70455801723452 1.499999999999971
    vertex 18.093381896939164 -38.583795506533576 3.9999999999999707
    vertex 17.081979041152273 -38.70455801723452 2.7499999999999716
  endloop
endfacet
facet normal 0.11855886612832525 -0.9929470254058702 -2.298561457792386e-15
  outer loop
    vertex 17.081979041152273 -38.70455801723452 2.7499999999999716
    vertex 17.587680469045722 -38.64417676188406 3.9999999999999707
    vertex 16.784094933530525 -38.74012567707302 2.749999999999971
  endloop
endfacet
facet normal 0.11855886612832525 -0.9929470254058702 -2.298561457792386e-15
  outer loop
    vertex 17.587680469045722 -38.64417676188406 3.9999999999999707
    vertex 17.081979041152273 -38.70455801723452 2.7499999999999716
    vertex 18.093381896939164 -38.583795506533576 3.9999999999999707
  endloop
endfacet
facet normal -0.1185588661283282 0.99294702540587 -2.986589969087427e-18
  outer loop
    vertex 19.415676511079056 -39.433015281894 3.9999999999999702
    vertex 28.89553806642486 -38.30111034809763 1.4999999999999718
    vertex 19.415676511079056 -39.433015281894 1.499999999999971
  endloop
endfacet
facet normal -0.1185588661283282 0.99294702540587 -2.986589969087427e-18
  outer loop
    vertex 28.89553806642486 -38.30111034809763 1.4999999999999718
    vertex 19.415676511079056 -39.433015281894 3.9999999999999702
    vertex 28.89553806642486 -38.30111034809763 3.9999999999999702
  endloop
endfacet
facet normal -0.9522822880420733 -0.3052186820647684 6.331398706897811e-16
  outer loop
    vertex 11.406284025923942 -14.44371072821003 2.749999999999971
    vertex 11.500683280359022 -14.73823640204748 2.749999999999971
    vertex 11.660939690615434 -15.238236402047477 3.9999999999999707
  endloop
endfacet
facet normal -0.9522822880420733 -0.3052186820647684 6.331398706897811e-16
  outer loop
    vertex 11.660939690615434 -15.238236402047477 3.9999999999999707
    vertex 11.821196100871841 -15.738236402047473 1.499999999999971
    vertex 11.821196100871845 -15.738236402047479 3.9999999999999707
  endloop
endfacet
facet normal -0.9522822880420733 -0.3052186820647684 6.331398706897811e-16
  outer loop
    vertex 11.821196100871841 -15.738236402047473 1.499999999999971
    vertex 11.660939690615434 -15.238236402047477 3.9999999999999707
    vertex 11.50068328035902 -14.738236402047473 1.499999999999971
  endloop
endfacet
facet normal -0.9522822880420733 -0.3052186820647684 6.331398706897811e-16
  outer loop
    vertex 11.50068328035902 -14.738236402047473 1.499999999999971
    vertex 11.660939690615434 -15.238236402047477 3.9999999999999707
    vertex 11.500683280359022 -14.73823640204748 2.749999999999971
  endloop
endfacet
facet normal -0.9522822880420735 -0.30521868206476716 -9.182016443485311e-17
  outer loop
    vertex 23.034469308317757 -16.738236402047463 3.999999999999968
    vertex 29.596049163858734 -37.21036555133531 1.4999999999999718
    vertex 29.596049163858734 -37.21036555133531 3.9999999999999702
  endloop
endfacet
facet normal -0.9522822880420735 -0.30521868206476716 -9.182016443485311e-17
  outer loop
    vertex 29.596049163858734 -37.21036555133531 1.4999999999999718
    vertex 23.034469308317757 -16.738236402047463 3.999999999999968
    vertex 23.034469308317757 -16.738236402047463 1.49999999999997
  endloop
endfacet
facet normal -3.968984071512439e-18 6.775369966007554e-17 1.0
  outer loop
    vertex 29.596049163858734 -37.21036555133531 3.9999999999999702
    vertex 23.559523702669683 -16.738236402047463 3.999999999999969
    vertex 23.034469308317757 -16.738236402047463 3.999999999999968
  endloop
endfacet
facet normal -3.968984071512439e-18 6.775369966007554e-17 1.0
  outer loop
    vertex 23.559523702669683 -16.738236402047463 3.999999999999969
    vertex 29.596049163858734 -37.21036555133531 3.9999999999999702
    vertex 30.101750591752182 -37.14998429598484 3.9999999999999694
  endloop
endfacet
facet normal 8.595142643437355e-16 -1.0 -1.1279865930191606e-15
  outer loop
    vertex 21.66384769910108 -15.738236402047468 3.9999999999999694
    vertex 11.821196100871841 -15.738236402047473 1.499999999999971
    vertex 21.663847699101073 -15.738236402047468 1.4999999999999702
  endloop
endfacet
facet normal 8.595142643437355e-16 -1.0 -1.1279865930191606e-15
  outer loop
    vertex 11.821196100871841 -15.738236402047473 1.499999999999971
    vertex 21.66384769910108 -15.738236402047468 3.9999999999999694
    vertex 11.821196100871845 -15.738236402047479 3.9999999999999707
  endloop
endfacet
facet normal -4.339163292285553e-16 0.8439454242599154 0.5364290455137114
  outer loop
    vertex 11.406284025923942 -14.44371072821003 2.749999999999971
    vertex 21.503591288844667 -15.238236402047471 3.9999999999999702
    vertex 21.248935624153177 -14.443710728210025 2.74999999999997
  endloop
endfacet
facet normal -4.339163292285553e-16 0.8439454242599154 0.5364290455137114
  outer loop
    vertex 21.503591288844667 -15.238236402047471 3.9999999999999702
    vertex 11.406284025923942 -14.44371072821003 2.749999999999971
    vertex 11.660939690615434 -15.238236402047477 3.9999999999999707
  endloop
endfacet
facet normal -1.3443723729050768e-14 -4.01839784474195e-15 1.0
  outer loop
    vertex 17.587680469045722 -38.64417676188406 3.9999999999999707
    vertex 11.091600132680801 -16.738236402047466 3.9999999999999716
    vertex 10.566545738328871 -16.738236402047463 3.9999999999999574
  endloop
endfacet
facet normal -1.3443723729050768e-14 -4.01839784474195e-15 1.0
  outer loop
    vertex 11.091600132680801 -16.738236402047466 3.9999999999999716
    vertex 17.587680469045722 -38.64417676188406 3.9999999999999707
    vertex 18.093381896939164 -38.583795506533576 3.9999999999999707
  endloop
endfacet
facet normal 0.8036742795968681 0.25758791012720134 0.5364290455137156
  outer loop
    vertex 30.90533612726738 -37.05403538079586 2.749999999999971
    vertex 23.559523702669683 -16.738236402047463 3.999999999999969
    vertex 30.101750591752182 -37.14998429598484 3.9999999999999694
  endloop
endfacet
facet normal 0.8036742795968681 0.25758791012720134 0.5364290455137156
  outer loop
    vertex 23.559523702669683 -16.738236402047463 3.999999999999969
    vertex 30.90533612726738 -37.05403538079586 2.749999999999971
    vertex 24.393862095617255 -16.738236402047463 2.7499999999999702
  endloop
endfacet
facet normal -0.8036742795968705 -0.25758791012720167 0.536429045513712
  outer loop
    vertex 17.587680469045722 -38.64417676188406 3.9999999999999707
    vertex 9.732207345381319 -16.73823640204747 2.749999999999971
    vertex 16.784094933530525 -38.74012567707302 2.749999999999971
  endloop
endfacet
facet normal -0.8036742795968705 -0.25758791012720167 0.536429045513712
  outer loop
    vertex 9.732207345381319 -16.73823640204747 2.749999999999971
    vertex 17.587680469045722 -38.64417676188406 3.9999999999999707
    vertex 10.566545738328871 -16.738236402047463 3.9999999999999574
  endloop
endfacet
facet normal -7.162618869531125e-16 1.0 5.6399329650957965e-15
  outer loop
    vertex 11.50068328035902 -14.738236402047473 1.499999999999971
    vertex 21.343334878588255 -14.738236402047473 2.7499999999999702
    vertex 21.343334878588255 -14.738236402047466 1.4999999999999707
  endloop
endfacet
facet normal -7.162618869531125e-16 1.0 5.6399329650957965e-15
  outer loop
    vertex 21.343334878588255 -14.738236402047473 2.7499999999999702
    vertex 11.50068328035902 -14.738236402047473 1.499999999999971
    vertex 11.500683280359022 -14.73823640204748 2.749999999999971
  endloop
endfacet
facet normal 0.11855886612832983 -0.9929470254058697 3.203488501704525e-16
  outer loop
    vertex 30.60745201964562 -37.089603040634366 1.4999999999999718
    vertex 29.596049163858734 -37.21036555133531 3.9999999999999702
    vertex 29.596049163858734 -37.21036555133531 1.4999999999999718
  endloop
endfacet
facet normal 0.11855886612832983 -0.9929470254058697 3.203488501704525e-16
  outer loop
    vertex 29.596049163858734 -37.21036555133531 3.9999999999999702
    vertex 30.60745201964562 -37.089603040634366 1.4999999999999718
    vertex 30.60745201964562 -37.089603040634366 2.7499999999999702
  endloop
endfacet
facet normal 0.11855886612832983 -0.9929470254058697 3.203488501704525e-16
  outer loop
    vertex 29.596049163858734 -37.21036555133531 3.9999999999999702
    vertex 30.60745201964562 -37.089603040634366 2.7499999999999702
    vertex 30.90533612726738 -37.05403538079586 2.749999999999971
  endloop
endfacet
facet normal 0.11855886612832983 -0.9929470254058697 3.203488501704525e-16
  outer loop
    vertex 29.596049163858734 -37.21036555133531 3.9999999999999702
    vertex 30.90533612726738 -37.05403538079586 2.749999999999971
    vertex 30.101750591752182 -37.14998429598484 3.9999999999999694
  endloop
endfacet
facet normal 0.9522822880420737 0.3052186820647668 -1.5740599617403293e-16
  outer loop
    vertex 11.091600132680801 -16.73823640204747 1.4999999999999707
    vertex 18.093381896939164 -38.583795506533576 3.9999999999999707
    vertex 18.093381896939164 -38.583795506533576 1.499999999999971
  endloop
endfacet
facet normal 0.9522822880420737 0.3052186820647668 -1.5740599617403293e-16
  outer loop
    vertex 18.093381896939164 -38.583795506533576 3.9999999999999707
    vertex 11.091600132680801 -16.73823640204747 1.4999999999999707
    vertex 11.091600132680801 -16.738236402047466 3.9999999999999716
  endloop
endfacet
facet normal -1.4033662385390216e-15 1.0 -2.10860446395231e-15
  outer loop
    vertex 10.566545738328871 -16.738236402047463 3.9999999999999574
    vertex 10.041491343976947 -16.73823640204747 2.749999999999971
    vertex 9.732207345381319 -16.73823640204747 2.749999999999971
  endloop
endfacet
facet normal -1.4033662385390216e-15 1.0 -2.10860446395231e-15
  outer loop
    vertex 10.041491343976947 -16.73823640204747 2.749999999999971
    vertex 11.091600132680801 -16.73823640204747 1.4999999999999707
    vertex 10.041491343976945 -16.738236402047473 1.4999999999999707
  endloop
endfacet
facet normal -1.4033662385390216e-15 1.0 -2.10860446395231e-15
  outer loop
    vertex 11.091600132680801 -16.73823640204747 1.4999999999999707
    vertex 10.041491343976947 -16.73823640204747 2.749999999999971
    vertex 11.091600132680801 -16.738236402047466 3.9999999999999716
  endloop
endfacet
facet normal -1.4033662385390216e-15 1.0 -2.10860446395231e-15
  outer loop
    vertex 11.091600132680801 -16.738236402047466 3.9999999999999716
    vertex 10.041491343976947 -16.73823640204747 2.749999999999971
    vertex 10.566545738328871 -16.738236402047463 3.9999999999999574
  endloop
endfacet
facet normal -8.953273586913867e-17 -6.271090946548843e-16 -1.0
  outer loop
    vertex 21.248935624153177 -14.443710728210025 2.74999999999997
    vertex 11.500683280359022 -14.73823640204748 2.749999999999971
    vertex 11.406284025923942 -14.44371072821003 2.749999999999971
  endloop
endfacet
facet normal -8.953273586913867e-17 -6.271090946548843e-16 -1.0
  outer loop
    vertex 11.500683280359022 -14.73823640204748 2.749999999999971
    vertex 21.248935624153177 -14.443710728210025 2.74999999999997
    vertex 21.343334878588255 -14.738236402047473 2.7499999999999702
  endloop
endfacet
facet normal -1.5646404291668434e-15 1.0 9.636823264362103e-16
  outer loop
    vertex 23.034469308317757 -16.738236402047463 3.999999999999968
    vertex 24.08457809702162 -16.73823640204746 1.4999999999999702
    vertex 23.034469308317757 -16.738236402047463 1.49999999999997
  endloop
endfacet
facet normal -1.5646404291668434e-15 1.0 9.636823264362103e-16
  outer loop
    vertex 24.08457809702162 -16.73823640204746 1.4999999999999702
    vertex 23.034469308317757 -16.738236402047463 3.999999999999968
    vertex 24.084578097021613 -16.73823640204746 2.74999999999997
  endloop
endfacet
facet normal -1.5646404291668434e-15 1.0 9.636823264362103e-16
  outer loop
    vertex 24.084578097021613 -16.73823640204746 2.74999999999997
    vertex 23.034469308317757 -16.738236402047463 3.999999999999968
    vertex 24.393862095617255 -16.738236402047463 2.7499999999999702
  endloop
endfacet
facet normal -1.5646404291668434e-15 1.0 9.636823264362103e-16
  outer loop
    vertex 24.393862095617255 -16.738236402047463 2.7499999999999702
    vertex 23.034469308317757 -16.738236402047463 3.999999999999968
    vertex 23.559523702669683 -16.738236402047463 3.999999999999969
  endloop
endfacet
facet normal 2.2814248773253705e-15 6.965546550848736e-16 -1.0
  outer loop
    vertex 24.393862095617255 -16.738236402047463 2.7499999999999702
    vertex 30.60745201964562 -37.089603040634366 2.7499999999999702
    vertex 24.084578097021613 -16.73823640204746 2.74999999999997
  endloop
endfacet
facet normal 2.2814248773253705e-15 6.965546550848736e-16 -1.0
  outer loop
    vertex 30.60745201964562 -37.089603040634366 2.7499999999999702
    vertex 24.393862095617255 -16.738236402047463 2.7499999999999702
    vertex 30.90533612726738 -37.05403538079586 2.749999999999971
  endloop
endfacet
facet normal 0.9522822880420737 0.30521868206476693 2.640922824697673e-15
  outer loop
    vertex 24.08457809702162 -16.73823640204746 1.4999999999999702
    vertex 30.60745201964562 -37.089603040634366 2.7499999999999702
    vertex 30.60745201964562 -37.089603040634366 1.4999999999999718
  endloop
endfacet
facet normal 0.9522822880420737 0.30521868206476693 2.640922824697673e-15
  outer loop
    vertex 30.60745201964562 -37.089603040634366 2.7499999999999702
    vertex 24.08457809702162 -16.73823640204746 1.4999999999999702
    vertex 24.084578097021613 -16.73823640204746 2.74999999999997
  endloop
endfacet
facet normal 1.0743928304296755e-16 -6.705559529949947e-16 1.0
  outer loop
    vertex 11.821196100871845 -15.738236402047479 3.9999999999999707
    vertex 21.503591288844667 -15.238236402047471 3.9999999999999702
    vertex 11.660939690615434 -15.238236402047477 3.9999999999999707
  endloop
endfacet
facet normal 1.0743928304296755e-16 -6.705559529949947e-16 1.0
  outer loop
    vertex 21.503591288844667 -15.238236402047471 3.9999999999999702
    vertex 11.821196100871845 -15.738236402047479 3.9999999999999707
    vertex 21.66384769910108 -15.738236402047468 3.9999999999999694
  endloop
endfacet
facet normal 0.9522822880420735 0.3052186820647677 -1.0506451477388427e-15
  outer loop
    vertex 21.343334878588255 -14.738236402047466 1.4999999999999707
    vertex 21.66384769910108 -15.738236402047468 3.9999999999999694
    vertex 21.663847699101073 -15.738236402047468 1.4999999999999702
  endloop
endfacet
facet normal 0.9522822880420735 0.3052186820647677 -1.0506451477388427e-15
  outer loop
    vertex 21.66384769910108 -15.738236402047468 3.9999999999999694
    vertex 21.343334878588255 -14.738236402047466 1.4999999999999707
    vertex 21.503591288844667 -15.238236402047471 3.9999999999999702
  endloop
endfacet
facet normal 0.9522822880420735 0.3052186820647677 -1.0506451477388427e-15
  outer loop
    vertex 21.503591288844667 -15.238236402047471 3.9999999999999702
    vertex 21.343334878588255 -14.738236402047466 1.4999999999999707
    vertex 21.343334878588255 -14.738236402047473 2.7499999999999702
  endloop
endfacet
facet normal 0.9522822880420735 0.3052186820647677 -1.0506451477388427e-15
  outer loop
    vertex 21.248935624153177 -14.443710728210025 2.74999999999997
    vertex 21.503591288844667 -15.238236402047471 3.9999999999999702
    vertex 21.343334878588255 -14.738236402047473 2.7499999999999702
  endloop
endfacet
endsolid myGun_XIIII
